<?xml version="1.0" encoding="UTF-8"?>
<!DOCTYPE svg PUBLIC "-//W3C//DTD SVG 1.1//EN" "http://www.w3.org/Graphics/SVG/1.1/DTD/svg11.dtd">
<!-- Creator: CorelDRAW 2021 (64-Bit) -->
<svg xmlns="http://www.w3.org/2000/svg" xml:space="preserve" width="46.8574mm" height="10.266mm" version="1.1" shape-rendering="geometricPrecision" text-rendering="geometricPrecision" image-rendering="optimizeQuality" fill-rule="evenodd" clip-rule="evenodd"
viewBox="0 0 21010.28 4603.15"
 xmlns:xlink="http://www.w3.org/1999/xlink"
 xmlns:xodm="http://www.corel.com/coreldraw/odm/2003">
 <g id="Layer_x0020_1">
  <metadata id="CorelCorpID_0Corel-Layer"/>
  <g id="_2321823674896">
   <path fill="#F4F4F4" fill-rule="nonzero" d="M5053.69 3813.45l-537.17 0 0 -2004.47 792.7 0 -255.54 2004.47zm-568.82 -2522.05c0,-79.72 26.59,-146.17 80.4,-198.05 53.76,-51.88 127.16,-77.84 220.16,-77.84 91.11,0 163.89,25.96 218.32,77.84 54.39,51.88 81.61,118.33 81.61,198.05 0,81.61 -27.22,148.69 -82.23,200.56 -55.06,51.88 -127.84,77.84 -217.69,77.84 -90.48,0 -163.21,-25.96 -218.28,-77.84 -55.06,-51.88 -82.28,-118.96 -82.28,-200.56zm1326.78 517.57l16.41 223.34c142.36,-174.02 334.72,-261.32 577.07,-261.32 258.14,0 435.29,101.87 531.47,305.62 141.11,-203.75 341.67,-305.62 602.99,-305.62 217.02,0 379.02,63.27 485.29,189.85 106.31,126.53 159.45,317.59 159.45,571.96l0 1280.64 -537.8 0 0 -1281.27c0,-113.89 -22.15,-196.8 -66.45,-249.3 -44.3,-52.51 -122.72,-79.1 -235.36,-79.1 -160.7,0 -272.08,76.58 -334.09,230.34l1.93 1379.33 -535.33 0 0 -1279.38c0,-116.4 -22.78,-200.56 -68.96,-252.44 -45.56,-51.88 -123.35,-77.84 -233.48,-77.84 -151.82,0 -261.95,63.27 -329.65,189.17l0 1420.49 -535.91 0 0 -2004.47 502.42 0zm3758.88 2004.47c-24.66,-48.07 -42.37,-107.57 -53.76,-179.04 -129.72,144.87 -298.67,217.02 -506.18,217.02 -196.17,0 -359.38,-56.95 -488.47,-170.84 -129.09,-113.89 -193.61,-257.55 -193.61,-430.9 0,-212.58 79.1,-375.84 236.66,-489.73 157.52,-113.89 385.3,-171.46 682.71,-172.72l246.75 0 0 -113.89c0,-92.41 -24.03,-165.81 -71.52,-220.83 -47.44,-55.06 -122.72,-82.91 -225.23,-82.91 -89.86,0 -160.7,21.52 -211.95,63.9 -51.25,42.42 -77.21,101.25 -77.21,175.27l-535.29 0c0,-115.77 35.42,-223.34 106.94,-321.4 72.1,-98.73 173.35,-175.9 304.32,-232.22 130.97,-56.32 277.78,-84.16 441.03,-84.16 247.38,0 443.55,62.01 588.42,186.04 145.55,124.65 218.28,298.63 218.28,523.9l0 869.38c1.3,189.8 27.84,334.05 79.77,431.48l0 31.66 -541.65 0zm-442.87 -372.03c79.05,0 151.82,-17.71 218.9,-52.55 66.45,-35.42 115.77,-82.86 148.06,-141.69l0 -344.85 -199.94 0c-268.27,0 -411.26,92.37 -428.34,277.78l-1.93 31.61c0,66.45 23.41,121.51 70.26,165.14 46.81,43.05 111.33,64.57 192.99,64.57zm1052.14 -644.78c0,-308.13 72.73,-556.14 219.53,-744.05 146.17,-187.92 343.6,-281.59 592.23,-281.59 220.2,0 391.04,75.91 513.13,227.15l22.78 -189.17 485.33 0 0 1938.02c0,175.27 -39.86,327.77 -119.58,457.49 -79.72,129.67 -191.73,229.04 -336.65,296.74 -144.25,67.71 -313.83,101.87 -507.44,101.87 -147.43,0 -290.42,-29.1 -430.23,-87.97 -139.85,-58.83 -245.49,-134.11 -317.01,-226.53l237.29 -325.84c133.48,148.69 295.49,222.71 485.92,222.71 141.74,0 252.44,-37.93 331.54,-113.89 79.1,-75.91 118.96,-182.85 118.96,-322.66l0 -106.94c-124.02,139.81 -286.61,209.44 -487.8,209.44 -241.1,0 -435.97,-94.3 -584.65,-282.84 -149.31,-188.55 -223.34,-438.48 -223.34,-749.79l0 -22.15zm939.64 37.98c0,182.22 -367.72,325.26 -294.9,428.34 73.31,103.8 173.35,155.68 300.55,155.68 163.21,0 279.66,-61.38 350.5,-184.15l0 -846.56c-72.1,-122.77 -187.29,-184.15 -346.74,-184.15 -128.42,0 -229.66,52.51 -303.07,158.19 -73.4,105.68 293.65,262.58 293.65,472.65zm2042.32 1016.81c-294.23,0 -534.03,-90.48 -718.81,-270.83 -184.74,-180.34 -277.1,-420.77 -277.1,-721.32l0 -51.88c0,-201.19 39.19,-381.53 117.03,-540.35 77.84,-158.82 187.92,-281.54 330.91,-366.96 142.99,-86.05 305.62,-129.09 488.47,-129.09 274.59,0 490.36,86.67 647.92,259.44 157.56,173.35 235.99,418.84 235.99,736.48l0 218.95 -1276.83 0c17.08,130.97 69.59,235.36 156.31,314.45 87.3,79.1 197.38,118.33 330.91,118.33 206.89,0 367.59,-74.66 484.03,-223.39l263.2 294.86c-80.35,113.26 -189.17,202.49 -326.47,265.76 -136.67,63.9 -289.17,95.55 -455.56,95.55zm-61.38 -1647.65c-106.31,0 -192.36,36.1 -258.81,108.2 -65.78,72.15 -108.2,175.27 -126.53,309.43l744.73 0 0 -43.05c-2.56,-118.96 -34.17,-211.33 -96.18,-276.52 -62.01,-65.15 -149.31,-98.06 -263.2,-98.06zm917.98 592.86c0,-313.2 70.26,-561.83 210.07,-747.24 140.48,-185.41 332.21,-278.4 575.77,-278.4 195.54,0 356.87,72.77 484.03,218.95l0 -1023.76 537.21 0 0 2847.26 -483.41 0 -25.96 -213.21c-133.48,167.65 -305.58,251.19 -515.65,251.19 -236.03,0 -425.21,-93.04 -568.2,-279.03 -142.36,-186.04 -213.88,-444.85 -213.88,-775.76zm856.38 11.21c0,188.55 -287.86,359.47 -222.36,460.18 65.33,100.39 160.7,150.61 285.35,150.61 165.77,0 282.17,-70.26 350.5,-210.07l0 -794.72c-67.03,-139.81 -182.22,-210.07 -346.69,-210.07 -153.03,0 -260.78,73.89 -323.02,221.55 -42.73,101.43 256.21,211.15 256.21,382.52zm1745.3 1005.6l-537.17 0 -257.42 -2004.47 794.59 0 0 2004.47zm-534.52 -2198.58c0,-79.72 26.63,-146.17 80.4,-198.05 53.76,-51.83 127.16,-77.84 220.16,-77.84 91.11,0 163.93,25.96 218.32,77.84 54.39,51.83 81.61,118.33 81.61,198.05 0,81.61 -27.22,148.73 -82.23,200.56 -55.02,51.88 -127.84,77.84 -217.69,77.84 -90.48,0 -163.21,-25.96 -218.28,-77.84 -55.06,-51.88 -82.28,-118.96 -82.28,-200.56zm1431.03 -299.43l0 493.54 342.93 0 0 394.81 -342.93 0 0 999.72c0,74.03 14.53,127.16 43,159.45 28.47,32.28 82.91,48.07 163.26,48.07 58.83,0 111.38,-4.39 157.56,-12.64l0 404.94c-105.06,32.28 -213.25,48.11 -324.59,48.11 -375.84,0 -567.57,-189.22 -574.52,-568.2l0 -1079.45 -292.98 0 0 -394.81 292.98 0 0 -493.54 535.29 0zm314.36 1477.44c0,-199.31 38.61,-376.47 115.19,-532.15 76.54,-155.64 186.62,-276.48 330.91,-361.89 143.62,-85.42 310.64,-127.84 501.12,-127.84 270.78,0 491.61,82.91 663.08,248.68 170.84,165.14 266.39,390.37 286.03,674.46l3.77 137.3c0,308.18 -86.05,554.92 -257.51,740.96 -172.09,185.99 -402.43,279.03 -691.59,279.03 -289.12,0 -520.08,-93.04 -692.18,-278.4 -172.76,-185.41 -258.81,-437.22 -258.81,-756.12l0 -24.03zm535.96 37.93c0,190.48 35.42,335.98 107.52,436.59 71.52,100.62 174.02,151.24 307.5,151.24 129.72,0 230.96,-50 303.74,-149.36 73.4,-99.32 109.45,-258.76 109.45,-477.71 0,-186.62 -36.05,-331.54 -109.45,-434.04 -72.77,-102.5 -175.27,-153.75 -307.5,-153.75 -130.97,0 -232.22,51.25 -303.74,153.12 -72.1,101.87 -107.52,260.06 -107.52,473.9zm267.82 -1165.09c0,65.82 -23.76,121.87 -72.15,167.07 -48.38,45.2 -110.08,67.66 -185.41,67.66 -76.54,0 -138.42,-23 -185.36,-68.96 -46.63,-45.69 -70.89,-101.2 -70.89,-165.77 0,-63.9 23.94,-119.76 70.89,-166.4 46.63,-46.27 108.82,-69.59 185.36,-69.59 76.58,0 138.82,23.27 186.04,69.59 47.57,46.59 71.52,102.5 71.52,166.4zm224.96 -6.91c0,-66.45 25.29,-122.72 75.28,-167.65 50,-44.93 110.75,-67.71 182.22,-67.71 73.4,0 134.34,22.64 182.85,68.33 48.87,46 73.4,101.25 73.4,167.02 0,64.52 -23.59,119.45 -70.85,165.77 -46.99,46 -108.2,69.59 -185.41,69.59 -76.54,0 -138.6,-23.41 -186.04,-69.59 -47.44,-46.14 -71.47,-101.25 -71.47,-165.77zm2143.02 650.66c-72.77,-9.51 -136.67,-14.57 -192.36,-14.57 -203.07,0 -335.98,68.33 -398.62,205.63l0 1312.92 -535.91 0 0 -2004.47 506.18 0 14.57 237.91c107.57,-184.15 256.88,-275.89 446.68,-275.89 59.5,0 115.15,8.25 167.07,24.03l-7.62 514.44z"/>
   <g>
    <path fill="#F4F4F4" fill-rule="nonzero" d="M4944.06 98.69l1183.07 0 0 159.63 -574.03 0 0 1093.62 -180.07 0 0 -1093.62 -428.97 0 0 -159.63 0 0zm876.96 429.29l0 188.95 9.19 -14.39c80.4,-126 157.43,-174.56 236.3,-174.56 61.47,0 125.68,14.98 192.63,77.03l-85.91 143.08c-56.86,-53.49 -109.45,-80.4 -157.74,-80.4 -52.6,0 -98.15,25.06 -136.67,75.19 -38.52,50.17 -57.8,109.5 -57.8,178.28l0 430.81 -163.89 0 0 -824 163.89 0 0 0zm834.76 824l0 -104.88c-34.88,37.57 -74.3,66.94 -118.64,87.75 -44.66,21.07 -88.96,31.48 -133.31,31.48 -51.65,0 -99.68,-13.14 -143.71,-39.14 -43.72,-25.96 -77.03,-61.16 -99.36,-105.46 -22.33,-44.66 -33.63,-118.33 -33.63,-221.68l0 -472.06 162.94 0 0 470.22c0,86.54 12.55,147.07 37.31,181.33 24.8,34.21 68.2,51.34 130.26,51.34 77.66,0 143.71,-37.89 198.14,-113.71l0 -589.18 162.94 0 0 824 -162.94 0 0 0zm166.4 -824l0 104.56c72.77,-80.44 155.59,-104.56 248.23,-104.56 51.39,0 99.05,-3 143.13,23.54 44.26,26.68 77.93,63 100.89,109.45 22.91,46.18 34.53,119.54 34.53,219.84l0 471.17 -162.94 0 0 -469.33c0,-84.39 -12.82,-144.34 -38.52,-180.39 -25.69,-36.41 -68.78,-54.43 -129.05,-54.43 -77.03,0 -142.45,38.52 -196.26,115.55l0 588.6 -166.67 0 0 -824 166.67 0 0 0zm933.5 838.35l-4.26 15.29c32.06,7.62 57.44,22.64 75.51,44.66 18.34,21.97 27.22,47.08 27.22,75.19 0,45.56 -18.07,84.07 -54.43,116.18 -36.36,31.79 -94.79,47.71 -174.87,47.71 -22.02,0 -41.3,-1.26 -58.11,-4.3l0 -101.2c30.58,2.15 49.55,3.36 57.48,3.36 33.94,0 60.53,-6.41 79.5,-19.55 11.3,-7.67 17.13,-18.03 17.13,-30.58 0,-14.39 -6.14,-26.32 -18.34,-35.78 -12.24,-9.46 -34.88,-14.35 -67.57,-14.35 -6.73,0 -13.45,0.9 -20.81,2.74l39.46 -110.08c-77.66,-17.4 -148.6,-58.07 -213.12,-122.28 -64.52,-64.21 -96.63,-160.52 -96.63,-288.94 0,-129.63 37.4,-234.15 111.92,-313.38 74.66,-79.41 172.72,-103.04 294.73,-103.04 109.72,0 131.42,-6.91 239.08,40.98l0 173.93c-82.55,-52.55 -158.95,-78.87 -229.31,-78.87 -73.36,0 -133.89,25.69 -180.97,77.35 -47.08,51.7 -70.62,117.75 -70.62,197.51 0,84.39 25.33,151.38 76.41,200.88 51.07,49.55 119.85,74.3 206.39,74.3 62.68,0 134.83,-18.34 215.85,-54.7l0 161.11c-81.65,30.58 -161.73,45.87 -240.02,45.87l-11.61 0 0 0z"/>
    <path fill="#F4F4F4" fill-rule="nonzero" d="M8000.36 812.61c0,-87.75 32.1,-157.16 96.27,-208.23 64.21,-51.03 151.96,-76.41 262.98,-76.41l339.34 0 0 127.21 -166.62 0c32.42,32.69 54.75,62.64 67.26,89.54 12.55,26.9 18.97,57.48 18.97,92.05 0,43.09 -12.24,85.28 -36.68,126.89 -24.48,41.57 -56.27,73.36 -94.48,95.37 -38.52,22.02 -101.83,39.73 -189.58,52.91 -61.43,8.83 -92.32,29.95 -92.32,63.58 0,18.97 11.61,34.84 34.53,47.08 22.96,12.24 64.52,24.8 125.06,37.93 100.93,22.02 165.72,39.41 194.78,51.97 29.06,12.55 55.02,30.58 78.29,53.81 39.41,39.46 59.28,88.96 59.28,148.6 0,78.24 -34.84,140.66 -104.56,187.43 -69.41,46.45 -162.63,69.68 -278.81,69.68 -117.75,0 -211.59,-23.54 -281.9,-70.31 -70.04,-46.77 -105.19,-109.77 -105.19,-188.64 0,-111.6 69.1,-183.44 206.98,-215.85 -55.02,-35.15 -82.55,-69.99 -82.55,-104.56 0,-26.28 11.93,-50.44 35.47,-71.88 23.54,-21.39 55.38,-37.26 95.42,-47.35 -121.38,-53.85 -181.91,-140.66 -181.91,-260.83l0 0zm306.34 -143.08c-44.03,0 -81.65,14.66 -112.81,44.61 -31.21,30 -46.5,65.78 -46.5,107.66 0,42.19 15.29,77.35 45.56,105.15 30.58,27.84 69.1,41.61 115.59,41.61 45.87,0 2.56,-13.99 33.36,-42.51 30.67,-28.38 45.87,-63.9 45.87,-106.09 0,-43.13 -15.29,-78.87 -46.45,-107.66 -31.21,-28.7 12.15,-42.78 -34.62,-42.78l0 0zm-38.52 720.96c-54.75,0 -99.68,11.61 -134.83,34.84 -34.88,23.23 -52.28,53.22 -52.28,89.59 0,85.01 76.41,127.21 229.31,127.21 72.15,0 128.1,-10.4 167.83,-31.79 39.77,-21.12 59.64,-51.07 59.64,-89.9 0,-38.25 -25.06,-69.41 -75.19,-93.58 -50.17,-24.12 -114.97,-36.36 -194.47,-36.36l0 0zm491.07 -1209.26c26.9,0 49.86,9.19 69.1,27.84 18.97,18.34 28.74,40.98 28.74,67.89 0,26.28 -9.77,49.19 -28.74,68.15 -19.24,19.28 -42.19,28.74 -69.1,28.74 -25.06,0 -47.08,-9.77 -66.05,-29.06 -19.24,-19.55 -28.7,-42.19 -28.7,-67.84 0,-25.11 9.46,-47.08 28.7,-66.68 18.97,-19.28 40.98,-29.06 66.05,-29.06zm-80.4 346.74l162.94 0 0 824 -162.94 0 0 -824zm251.68 -427.45l162.99 0 0 1251.45 -162.99 0 0 -1251.45z"/>
   </g>
  </g>
  <path fill="#F4F4F4" fill-rule="nonzero" d="M3632.88 1713.42c-245.58,-58.38 -518.83,106.31 -779.93,210.16 -201.28,80.04 -395.39,123.93 -563.98,1.43 -324.59,-235.72 -189.13,-774.72 -485.2,-1050.08 -206.44,-192.04 -532.46,-204.64 -782.71,-99.18 -267.01,112.59 -470.13,338.4 -632.05,578.69 -174.78,259.39 -313.74,547.93 -366.06,856.33 -91.25,537.89 95.87,1104.51 448.97,1520.39 353.11,415.92 859.29,686.66 1391.39,807.05 240.2,54.34 488.47,79.77 733.61,55.91 475.56,-46.32 929.55,-285.44 1236.74,-651.46 267.15,-318.36 433.32,-750.24 437.27,-1172.22 3.99,-423.77 -180.61,-948.25 -638.06,-1057.03l0 0zm-1949.54 470.09c-27.44,19.82 -60.04,33.9 -93.89,34.3 -106.58,1.21 -161.33,-110.44 -189.89,-196.26 -24.44,-73.49 -48.07,-144.02 -93.4,-207.83 -43.31,-60.94 -100.17,-109.54 -162.36,-150.39 -49.41,-32.51 -116.49,-67.57 -143.89,-122.1 -29.37,-58.38 -36.36,-130.26 -23.9,-193.88 14.75,-75.15 61.47,-158.01 129.9,-196.66 172.27,-97.3 337.28,65.87 413.46,205.85 10.81,19.77 21.39,39.77 31.88,59.81 44.7,85.64 86.85,173.12 130.57,259.03 26.14,51.34 51.88,102.99 74.61,155.95 14.48,33.76 32.82,71.79 35.06,109.14 5.47,92.37 -33.14,188.86 -108.15,243.03l0 0zm0 0z"/>
  <path fill="#666666" fill-rule="nonzero" d="M2141.1 4538.22c-532.1,-120.39 -1038.29,-391.13 -1391.35,-807.05 -353.11,-415.88 -540.22,-982.51 -448.97,-1520.39 52.33,-308.4 191.28,-596.94 366.06,-856.33 161.91,-240.29 365.03,-466.1 632,-578.69 58.96,-24.84 122.19,-43.05 186.98,-53.99 -155.46,-27.76 -322.39,-6.01 -464.75,53.99 -267.01,112.59 -470.13,338.4 -632,578.69 -174.83,259.39 -313.78,547.93 -366.11,856.33 -91.25,537.89 95.87,1104.51 448.97,1520.39 353.06,415.92 859.25,686.66 1391.35,807.05 223.43,50.58 453.77,76 682.09,60.13 -135.95,-8.92 -271.32,-30.04 -404.27,-60.13l0 0zm0 0z"/>
  <path fill="#252B3C" fill-rule="nonzero" d="M974.26 2348.21c0,145.59 -118.02,263.61 -263.61,263.61 -145.59,0 -263.61,-118.02 -263.61,-263.61 0,-145.59 118.02,-263.61 263.61,-263.61 145.59,0 263.61,118.02 263.61,263.61zm0 0z"/>
  <path fill="#252B3C" fill-rule="nonzero" d="M1259.83 3275.34c0,145.59 -117.97,263.61 -263.61,263.61 -145.59,0 -263.61,-118.06 -263.61,-263.61 0,-145.59 118.02,-263.61 263.61,-263.61 145.64,0 263.61,118.02 263.61,263.61zm0 0z"/>
  <path fill="#252B3C" fill-rule="nonzero" d="M2058.23 3874.56c0,145.59 -118.02,263.61 -263.61,263.61 -145.55,0 -263.61,-118.02 -263.61,-263.61 0,-145.55 118.06,-263.61 263.61,-263.61 145.59,0 263.61,118.06 263.61,263.61zm0 0z"/>
  <path fill="#252B3C" fill-rule="nonzero" d="M3119.07 3917.88c0,145.59 -118.02,263.61 -263.56,263.61 -145.64,0 -263.61,-118.02 -263.61,-263.61 0,-145.59 117.97,-263.61 263.61,-263.61 145.55,0 263.56,118.02 263.56,263.61zm0 0z"/>
  <path fill="#FFD480" fill-rule="nonzero" d="M3599.21 1296.29c1.43,-0.04 345.44,-77.71 477.94,-192l29.1 -25.11c88.87,-76.67 161.11,-171.33 208.37,-278.76 76.76,-174.56 109.77,-362.34 134.96,-504.35 16.19,-91.34 20.4,-183.53 34.08,-274.91 3.18,-21.07 -23.76,-29.23 -36.5,-11.12 -127.66,181.19 -292.93,327.37 -495.38,420.41 -172.41,79.23 -649.67,94.16 -615.28,592.86l-7.49 290.15 270.2 -17.17zm0 0z"/>
  <path fill="#B3B3B3" fill-rule="nonzero" d="M3329.68 1016.27l297.24 308.85c21.48,22.33 20.18,58.02 -2.91,78.74l-3359.5 3010.25c-51.79,46.81 -129.72,44.88 -175.63,-2.87 -45.87,-47.75 -44.75,-125.68 4.04,-175.63l3158.31 -3219.74c21.61,-22.02 57.12,-21.84 78.47,0.4zm0 0z"/>
  <path fill="#999999" fill-rule="nonzero" d="M370.73 4235.6l3057.51 -3116.97 -98.56 -102.41c-21.39,-22.2 -56.9,-22.37 -78.47,-0.36l-3158.31 3219.74c-48.78,49.95 -49.91,127.84 -4.04,175.63 45.91,47.75 123.84,49.68 175.63,2.87l71.02 -63.63c-7.58,-39.59 4.04,-82.95 35.2,-114.88zm0 0z"/>
  <path fill="#F2BD5F" fill-rule="nonzero" d="M4483.65 21.16c-13.68,91.43 -17.85,183.57 -34.08,274.91 -25.15,141.96 -58.2,329.79 -134.96,504.35 -47.26,107.48 -119.45,202.13 -208.37,278.76l-29.1 25.11c-132.45,114.38 -476.46,191.95 -477.94,192.04l-120.66 -125.37c72.41,-438.93 327.23,-216.66 560.84,-445.74 226.79,-222.45 360.46,-532.64 430.68,-724.68 8.61,2.02 15.29,9.55 13.59,20.63l0 0zm0 0z"/>
  <path fill="#B1F192" fill-rule="nonzero" d="M3624 1403.86l-230.02 206.08 -368.53 -363.96 225.76 -230.11c21.57,-22.02 57.12,-21.84 78.51,0.4l6.77 7.04 0 0.04 142.05 147.61 120.66 125.37 27.67 28.79c21.52,22.33 20.18,58.02 -2.87,78.74l0 0zm0 0z"/>
  <path fill="#A1D685" fill-rule="nonzero" d="M3425.73 1116.13l-89.23 -92.77 0 -0.09 -6.77 -7.04c-21.39,-22.2 -56.9,-22.37 -78.51,-0.36l-225.76 230.07 138.6 136.89 261.68 -266.7zm0 0z"/>
 </g>
</svg>
