<?xml version="1.0" encoding="UTF-8"?>
<svg xmlns="http://www.w3.org/2000/svg" xmlns:xlink="http://www.w3.org/1999/xlink" width="390.4pt" height="461.9pt" viewBox="0 0 390.4 461.9" version="1.1">
<defs>
<clipPath id="clip1">
  <path d="M 0 0 L 390 0 L 390 461.898438 L 0 461.898438 Z M 0 0 "/>
</clipPath>
</defs>
<g id="surface1">
<g clip-path="url(#clip1)" clip-rule="nonzero">
<path style=" stroke:none;fill-rule:evenodd;fill:rgb(10.594177%,9.812927%,9.423828%);fill-opacity:1;" d="M 73.488281 213.632813 C 90.289063 213.945313 100.867188 219.855469 100.867188 250.960938 C 100.242188 272.113281 113.621094 280.199219 108.644531 281.445313 C 95.265625 280.199219 89.355469 277.402344 87.800781 265.890625 C 86.558594 255.007813 86.558594 241.320313 79.402344 240.695313 C 70.691406 236.03125 69.140625 244.117188 71 258.117188 C 61.671875 261.847656 53.894531 254.070313 54.203125 232.609375 C 55.761719 220.789063 62.605469 215.8125 73.488281 213.632813 Z M 67.582031 198.394531 C 66.644531 204.300781 43.316406 196.214844 45.5 207.722656 C 46.742188 222.03125 48.292969 241.007813 43.625 240.695313 C 38.652344 240.695313 30.566406 221.722656 30.566406 212.078125 C 28.699219 194.035156 36.164063 183.769531 51.097656 183.148438 C 61.671875 184.390625 67.582031 189.371094 67.582031 198.394531 Z M 242.085938 180.96875 C 237.109375 180.039063 236.488281 176.304688 243.328125 174.746094 C 248.617188 171.015625 252.042969 168.21875 251.730469 166.039063 C 250.488281 163.550781 244.582031 164.484375 238.039063 165.730469 C 236.175781 168.21875 234.003906 170.394531 231.507813 172.882813 C 229.332031 174.4375 220 171.640625 218.136719 173.195313 C 215.960938 175.371094 213.46875 177.550781 210.671875 178.484375 C 202.269531 180.660156 200.09375 175.683594 204.761719 171.015625 C 206.316406 169.460938 205.074219 166.976563 203.203125 167.597656 C 187.65625 172.882813 189.828125 154.21875 192.316406 148.933594 C 201.027344 141.464844 203.511719 137.113281 204.453125 125.289063 C 205.386719 115.335938 219.378906 115.335938 221.558594 116.890625 C 225.910156 124.671875 234.933594 123.734375 243.015625 124.046875 C 258.265625 123.113281 273.195313 121.871094 288.117188 120.621094 C 292.792969 116.890625 297.148438 115.335938 302.125 117.515625 C 310.523438 121.558594 300.5625 125.289063 301.8125 128.402344 C 304.917969 134.3125 315.1875 126.535156 318.613281 128.089844 C 323.582031 129.953125 315.808594 132.445313 331.054688 140.535156 C 335.410156 142.710938 333.847656 131.511719 338.203125 131.511719 C 342.25 131.199219 345.980469 136.800781 350.644531 128.089844 C 353.453125 124.359375 354.382813 133.996094 363.398438 135.871094 C 369.304688 136.179688 375.535156 136.800781 378.019531 131.824219 C 375.847656 130.890625 372.730469 130.578125 375.847656 125.914063 C 378.957031 123.734375 386.738281 126.847656 388.289063 131.824219 C 389.53125 134.933594 390.460938 140.535156 388.289063 144.578125 C 384.242188 149.867188 385.175781 155.777344 376.46875 166.351563 C 375.226563 168.839844 377.085938 174.128906 377.398438 178.171875 C 377.707031 183.460938 374.59375 184.078125 370.25 182.527344 C 367.753906 181.28125 365.273438 180.96875 362.777344 179.414063 C 357.484375 179.730469 355.3125 178.171875 356.242188 174.4375 C 353.761719 169.773438 350.335938 168.839844 348.785156 171.949219 C 345.046875 180.039063 341.320313 179.414063 340.691406 171.015625 C 339.753906 168.527344 331.367188 168.839844 329.808594 167.285156 C 325.761719 162.929688 320.785156 159.195313 316.429688 154.84375 C 313.007813 155.152344 309.273438 155.777344 305.855469 156.085938 C 304.296875 158.886719 302.746094 161.996094 301.183594 165.414063 C 301.183594 168.839844 306.792969 177.550781 304.296875 178.484375 C 297.148438 178.484375 289.683594 178.484375 282.523438 178.484375 C 279.109375 179.730469 275.0625 180.660156 271.328125 181.59375 C 261.6875 181.28125 250.800781 182.527344 242.085938 180.96875 Z M 208.492188 160.441406 C 206.007813 163.242188 211.292969 167.285156 214.089844 164.484375 C 216.273438 161.996094 218.753906 160.441406 220.941406 157.953125 C 224.355469 155.777344 232.441406 154.84375 240.84375 154.84375 C 245.203125 150.796875 242.707031 145.507813 237.730469 146.757813 C 231.507813 146.757813 219.378906 149.554688 217.515625 151.730469 C 214.089844 154.84375 211.914063 157.328125 208.492188 160.441406 Z M 168.054688 0.242188 C 74.117188 0.242188 1.015625 80.808594 0.0820313 168.527344 C 5.058594 255.628906 45.1875 315.664063 63.539063 343.660156 C 66.023438 346.769531 70.070313 327.789063 109.886719 325.304688 C 116.726563 323.746094 110.816406 310.371094 113.308594 305.394531 C 114.863281 302.285156 121.707031 305.085938 122.015625 301.664063 C 116.417969 291.089844 21.542969 279.265625 20.609375 212.390625 C 19.988281 157.328125 94.644531 175.683594 114.242188 198.394531 C 114.242188 196.214844 124.820313 190.613281 129.167969 186.570313 C 130.730469 185.324219 120.773438 187.195313 121.707031 186.257813 C 125.441406 182.214844 136.949219 175.683594 136.949219 173.195313 C 130.105469 138.046875 119.53125 141.777344 132.28125 124.671875 C 136.949219 110.050781 152.1875 110.050781 151.566406 106.007813 C 151.253906 93.253906 122.636719 111.605469 121.085938 110.359375 C 119.21875 107.5625 117.664063 106.9375 117.976563 104.140625 C 117.664063 98.230469 135.394531 88.273438 135.703125 85.785156 C 135.703125 81.742188 136.949219 72.410156 133.835938 70.539063 C 130.105469 68.054688 124.820313 75.519531 124.195313 73.65625 C 123.257813 69.921875 124.195313 63.078125 124.195313 60.277344 C 124.195313 58.414063 131.351563 55.613281 131.351563 53.4375 C 131.351563 48.460938 122.328125 52.191406 119.84375 54.371094 C 117.664063 55.921875 101.800781 81.742188 99 82.675781 C 92.777344 84.230469 76.289063 98.230469 67.269531 91.074219 C 67.269531 90.453125 94.019531 58.722656 93.707031 58.101563 C 96.824219 54.058594 129.167969 51.882813 143.484375 40.371094 C 148.460938 37.257813 145.347656 31.972656 145.65625 29.484375 C 145.964844 27.621094 148.769531 26.996094 148.769531 26.0625 C 148.769531 23.886719 144.414063 24.195313 144.414063 22.953125 C 144.722656 21.085938 157.164063 22.640625 159.347656 14.867188 C 159.347656 12.371094 145.964844 11.441406 148.460938 10.507813 C 164.011719 6.464844 180.5 -0.0664063 168.054688 0.242188 Z M 366.203125 258.117188 C 368.996094 257.804688 374.59375 245.050781 378.957031 238.519531 C 380.507813 236.652344 377.085938 227.941406 374.59375 226.699219 C 373.351563 225.140625 323.273438 234.476563 319.855469 233.851563 C 313.636719 234.785156 312.390625 242.246094 309.273438 241.628906 C 306.164063 240.074219 302.746094 238.210938 299.628906 236.652344 C 294.964844 234.476563 293.414063 236.652344 295.589844 242.871094 C 293.101563 243.183594 290.304688 243.183594 287.808594 243.496094 C 284.394531 243.496094 284.707031 248.472656 289.054688 248.472656 C 292.171875 248.472656 294.964844 248.785156 297.769531 248.472656 C 300.25 248.164063 306.792969 259.050781 310.210938 259.359375 C 327.007813 263.09375 347.855469 251.578125 366.203125 258.117188 Z M 305.542969 293.578125 C 290.304688 292.644531 280.039063 294.511719 275.371094 304.773438 C 274.4375 305.085938 266.035156 305.394531 274.75 309.441406 C 277.234375 310.6875 280.660156 313.484375 282.832031 312.238281 C 299.320313 305.085938 318.921875 303.53125 338.824219 300.109375 C 347.855469 299.175781 373.351563 317.839844 370.25 306.953125 C 348.472656 296.066406 355.3125 291.710938 350.957031 289.222656 C 334.15625 285.175781 324.832031 288.601563 305.542969 293.578125 Z M 342.558594 362.007813 C 339.753906 363.878906 336.960938 365.742188 334.15625 366.988281 C 327.628906 370.097656 307.410156 376.941406 283.777344 363.566406 C 271.636719 353.300781 270.390625 332.148438 276.613281 315.664063 L 270.078125 313.796875 C 264.792969 313.796875 260.125 330.90625 258.574219 335.882813 C 257.019531 341.789063 236.175781 337.4375 233.691406 339.300781 C 221.558594 355.789063 209.734375 372.585938 200.714844 389.386719 C 235.242188 408.355469 267.285156 434.488281 298.699219 461.859375 C 313.636719 427.023438 335.410156 409.914063 380.195313 376.941406 L 366.824219 366.367188 L 366.824219 364.496094 L 361.539063 361.699219 Z M 267.285156 316.285156 L 276.613281 314.726563 L 275.683594 319.703125 L 266.667969 321.261719 Z M 336.652344 315.351563 L 349.714844 314.109375 L 354.691406 317.527344 L 338.824219 319.394531 Z M 339.445313 267.757813 L 350.957031 266.824219 L 351.265625 270.246094 L 339.753906 271.179688 Z M 342.25 259.359375 L 351.265625 257.804688 L 351.898438 260.914063 L 342.25 262.15625 Z M 280.347656 257.183594 L 287.1875 256.558594 L 287.808594 259.664063 L 280.96875 260.605469 Z M 165.878906 231.054688 C 164.324219 229.496094 173.652344 227.941406 171.789063 226.699219 L 218.445313 226.074219 L 221.558594 230.429688 C 224.046875 233.851563 253.597656 231.988281 254.839844 234.164063 C 257.953125 240.695313 261.0625 244.738281 266.976563 247.539063 C 240.84375 258.117188 239.601563 281.132813 238.039063 297.933594 C 236.796875 305.703125 232.757813 311.929688 229.644531 310.371094 C 214.398438 282.996094 193.875 256.558594 165.878906 231.054688 Z M 165.878906 231.054688 "/>
</g>
</g>
</svg>
