<?xml version="1.0" encoding="UTF-8"?>
<!DOCTYPE svg PUBLIC "-//W3C//DTD SVG 1.1//EN" "http://www.w3.org/Graphics/SVG/1.1/DTD/svg11.dtd">
<!-- Creator: CorelDRAW 2021 (64-Bit) -->
<svg xmlns="http://www.w3.org/2000/svg" xml:space="preserve" width="240.752mm" height="332.387mm" version="1.1" style="shape-rendering:geometricPrecision; text-rendering:geometricPrecision; image-rendering:optimizeQuality; fill-rule:evenodd; clip-rule:evenodd"
viewBox="0 0 1381.69 1907.59"
 xmlns:xlink="http://www.w3.org/1999/xlink"
 xmlns:xodm="http://www.corel.com/coreldraw/odm/2003">
 <defs>
  <style type="text/css">
   <![CDATA[
    .fil2 {fill:#2B2A29}
    .fil1 {fill:#E84F28}
    .fil0 {fill:#E31E24}
    .fil4 {fill:#434242;fill-rule:nonzero}
    .fil3 {fill:#2B2A29;fill-rule:nonzero}
   ]]>
  </style>
 </defs>
 <g id="Layer_x0020_1">
  <metadata id="CorelCorpID_0Corel-Layer"/>
  <g id="_1970149600224">
   <path class="fil0" d="M767.1 906.14c-101.39,-209.44 -197.5,-423.35 -298.89,-632.79 -224.94,-312.58 -620.34,41.48 -407.02,306.46 197.45,152.08 360.44,284.41 557.89,436.49 100.49,-18.08 137.37,-58.34 148.03,-110.16z"/>
   <path class="fil0" d="M921.98 859.46c-17.44,-161.28 -69.42,-466.12 -76.08,-586.11 -24.65,-392.17 -509.28,-335.82 -340.24,0.48 89.2,177.9 182.69,436.73 282.73,626.84 55.7,14.64 122.44,-9.48 133.59,-41.21z"/>
   <path class="fil1" d="M1052.29 870.91c37.68,-155.19 98.88,-366.8 132.33,-480.44 27.4,-288.79 -274.15,-379.68 -305.54,-193.35 -6.02,61.82 2.43,128.64 15.05,236.85 15.23,130.61 36.78,279.52 48.22,422.65 30.79,40.61 86.38,36.18 109.94,14.29z"/>
   <path class="fil1" d="M1160.15 966.15l193.83 -272.74c85.93,-134.87 -48.53,-481.2 -124,-302.94 -6.01,10.73 -133.44,409.84 -160.38,487.31 1.56,78.11 66.95,101.87 90.54,88.37z"/>
   <path class="fil2" d="M785.02 916.15c60.83,8.07 125.68,-1.97 148.38,-49.41 36.39,47.33 100.06,47.31 125.16,19.68 -1.25,58.34 27.79,91.76 83.7,100.15 -26,39 -72.32,85.45 -96.11,11.02 -25.27,125.45 -50.54,209.38 -75.81,334.84 -27.53,13.38 -47.8,15.68 -75.65,0 -14.66,-116.8 -29.32,-192.07 -43.99,-308.88 -47.27,85.69 -118.59,80.12 -204.34,3.87 23.25,-10.53 114.24,-14.19 138.65,-111.27z"/>
  </g>
  <g id="_1970149609920">
   <path class="fil3" d="M142.84 1768.64l38.17 -37.53 0 21.27 32.46 0 0 18.28 -32.46 0 0 50.29c0,11.73 4.88,17.61 14.63,17.61 7.27,0 14.97,-2.37 23.08,-7.1l0 18.83c-7.81,4.38 -16.34,6.55 -25.57,6.55 -9.29,0 -17.06,-2.7 -23.24,-8.15 -1.94,-1.64 -3.54,-3.47 -4.8,-5.53 -1.25,-2.05 -2.32,-4.72 -3.16,-8.04 -0.88,-3.32 -1.3,-9.6 -1.3,-18.94l0 -45.53 -17.83 0 0 -2.02zm160.68 36.53l-72.24 0c0.53,9.91 3.81,17.79 9.87,23.66 6.06,5.87 13.91,8.81 23.51,8.81 13.37,0 25.71,-4.11 37.03,-12.34l0 19.77c-6.25,4.16 -12.46,7.08 -18.59,8.88 -6.13,1.79 -13.34,2.66 -21.61,2.66 -11.31,0 -20.46,-2.36 -27.46,-7.04 -6.97,-4.69 -12.57,-11.01 -16.76,-18.98 -4.23,-7.92 -6.33,-17.14 -6.33,-27.58 0,-15.65 4.42,-28.38 13.3,-38.21 8.84,-9.79 20.34,-14.71 34.52,-14.71 13.6,0 24.49,4.77 32.61,14.29 8.12,9.49 12.16,22.25 12.16,38.25l0 2.55zm-71.78 -12.11l51.66 0c-0.53,-8.11 -2.93,-14.37 -7.24,-18.79 -4.34,-4.38 -10.13,-6.59 -17.41,-6.59 -7.32,0 -13.26,2.21 -17.91,6.59 -4.65,4.42 -7.7,10.68 -9.1,18.79zm142.95 -40.69l24.35 0 -43.63 50.13 52.54 52.5 -27.27 0 -51.37 -52.23 45.38 -50.4zm-66.63 -53.26l20.35 0 0 155.9 -20.35 0 0 -155.9zm112.44 53.26l0 12.79c9.07,-10.06 19.39,-15.09 30.9,-15.09 6.4,0 12.34,1.68 17.86,4.99 5.49,3.31 9.68,7.85 12.54,13.65 2.86,5.79 4.3,14.93 4.3,27.46l0 58.83 -20.35 0 0 -58.67c0,-10.51 -1.6,-18.06 -4.8,-22.55 -3.19,-4.54 -8.53,-6.79 -16.03,-6.79 -9.6,0 -17.72,4.8 -24.42,14.4l0 73.61 -20.8 0 0 -102.63 20.8 0zm125.62 -0.23c15.66,0 28.61,5.02 38.97,15.12 10.33,10.1 15.51,22.75 15.51,38.03 0,14.78 -5.26,27.09 -15.73,36.88 -10.48,9.79 -23.7,14.67 -39.62,14.67 -15.39,0 -28.27,-4.95 -38.64,-14.9 -10.32,-9.95 -15.5,-22.36 -15.5,-37.22 0,-15.05 5.22,-27.54 15.7,-37.56 10.44,-10.02 23.54,-15.01 39.32,-15.01zm-1.06 18.28c-9.76,0 -17.76,3.21 -24,9.6 -6.25,6.4 -9.38,14.56 -9.38,24.46 0,9.83 3.2,17.83 9.6,24.05 6.41,6.21 14.63,9.33 24.69,9.33 9.99,0 18.14,-3.17 24.5,-9.46 6.36,-6.29 9.56,-14.33 9.56,-24.15 0,-9.76 -3.31,-17.83 -9.94,-24.23 -6.63,-6.4 -14.97,-9.6 -25.02,-9.6zm61.2 -71.31l20.35 0 0 155.9 -20.35 0 0 -155.9zm81.32 53.03c15.66,0 28.62,5.02 38.97,15.12 10.33,10.1 15.51,22.75 15.51,38.03 0,14.78 -5.26,27.09 -15.73,36.88 -10.48,9.79 -23.7,14.67 -39.62,14.67 -15.39,0 -28.27,-4.95 -38.64,-14.9 -10.32,-9.95 -15.5,-22.36 -15.5,-37.22 0,-15.05 5.22,-27.54 15.7,-37.56 10.43,-10.02 23.54,-15.01 39.31,-15.01zm-1.06 18.28c-9.75,0 -17.76,3.21 -24,9.6 -6.25,6.4 -9.38,14.56 -9.38,24.46 0,9.83 3.2,17.83 9.6,24.05 6.41,6.21 14.63,9.33 24.69,9.33 9.99,0 18.14,-3.17 24.5,-9.46 6.36,-6.29 9.56,-14.33 9.56,-24.15 0,-9.76 -3.31,-17.83 -9.94,-24.23 -6.63,-6.4 -14.97,-9.6 -25.03,-9.6zm70.11 -61.26c3.36,0 6.18,1.18 8.57,3.5 2.36,2.36 3.55,5.18 3.55,8.42 0,3.43 -1.14,6.33 -3.39,8.61 -2.25,2.33 -5.1,3.47 -8.49,3.47 -3.2,0 -6.02,-1.19 -8.46,-3.58 -2.44,-2.36 -3.66,-5.22 -3.66,-8.5 0,-3.12 1.22,-5.87 3.62,-8.3 2.39,-2.4 5.14,-3.62 8.26,-3.62zm-9.6 43.21l20.34 0 0 117.46c0,17.79 -6.82,30.36 -20.46,37.75l-15.2 -14.85c4.69,-1.64 8.42,-4.5 11.16,-8.62 2.78,-4.07 4.15,-8.87 4.15,-14.28l0 -117.46zm43.41 -43.21c3.35,0 6.21,1.14 8.57,3.46 2.4,2.29 3.58,5.14 3.58,8.46 0,3.28 -1.18,6.14 -3.58,8.5 -2.36,2.39 -5.22,3.58 -8.57,3.58 -3.13,0 -5.91,-1.22 -8.27,-3.62 -2.4,-2.44 -3.58,-5.26 -3.58,-8.46 0,-3.12 1.18,-5.87 3.58,-8.3 2.36,-2.4 5.14,-3.62 8.27,-3.62zm-10.02 43.21l20.34 0 0 102.63 -20.34 0 0 -102.63z"/>
   <path class="fil3" d="M-0 1265.76l393.94 0 0 53.14 -191.14 0 0 364.17 -59.96 0 0 -364.17 -142.84 0 0 -53.14zm292.01 142.94l0 62.92 3.06 -4.78c26.78,-41.96 52.43,-58.13 78.7,-58.13 20.46,0 41.84,4.99 64.14,25.65l-28.61 47.65c-18.94,-17.81 -36.45,-26.77 -52.53,-26.77 -17.51,0 -32.68,8.35 -45.51,25.04 -12.83,16.7 -19.24,36.45 -19.24,59.35l0 143.45 -54.57 0 0 -274.37 54.57 0zm277.96 274.37l0 -34.92c-11.61,12.52 -24.74,22.29 -39.5,29.22 -14.86,7.02 -29.63,10.49 -44.39,10.49 -17.21,0 -33.19,-4.38 -47.85,-13.03 -14.56,-8.65 -25.66,-20.36 -33.09,-35.12 -7.43,-14.86 -11.2,-39.4 -11.2,-73.81l0 -157.19 54.26 0 0 156.58c0,28.81 4.18,48.97 12.42,60.37 8.25,11.4 22.7,17.1 43.37,17.1 25.86,0 47.85,-12.63 65.97,-37.87l0 -196.18 54.26 0 0 274.37 -54.26 0zm55.4 -274.37l0 34.82c24.23,-26.78 51.82,-34.82 82.67,-34.82 17.1,0 32.97,-1 47.65,7.84 14.75,8.88 25.96,20.97 33.6,36.45 7.63,15.37 11.5,39.81 11.5,73.2l0 156.89 -54.26 0 0 -156.28c0,-28.1 -4.27,-48.05 -12.83,-60.06 -8.55,-12.12 -22.91,-18.12 -42.96,-18.12 -25.66,0 -47.44,12.83 -65.36,38.48l0 195.98 -55.48 0 0 -274.37 55.48 0zm310.84 279.16l-1.43 5.09c10.69,2.54 19.14,7.53 25.15,14.86 6.11,7.33 9.06,15.68 9.06,25.04 0,15.17 -6.01,28 -18.12,38.69 -12.12,10.59 -31.56,15.88 -58.23,15.88 -7.33,0 -13.74,-0.41 -19.34,-1.43l0 -33.7c10.18,0.71 16.49,1.12 19.14,1.12 11.3,0 20.16,-2.14 26.47,-6.52 3.77,-2.54 5.7,-6.01 5.7,-10.18 0,-4.78 -2.04,-8.75 -6.11,-11.91 -4.07,-3.16 -11.61,-4.78 -22.5,-4.78 -2.24,0 -4.48,0.31 -6.92,0.92l13.13 -36.65c-25.86,-5.8 -49.48,-19.34 -70.96,-40.72 -21.48,-21.38 -32.17,-53.45 -32.17,-96.21 0,-43.16 12.45,-77.96 37.26,-104.35 24.87,-26.45 57.52,-34.31 98.14,-34.31 36.54,0 43.76,-2.29 79.61,13.64l0 57.93c-27.49,-17.51 -52.94,-26.27 -76.35,-26.27 -24.43,0 -44.59,8.55 -60.27,25.76 -15.68,17.21 -23.52,39.2 -23.52,65.77 0,28.1 8.45,50.39 25.45,66.89 17,16.49 39.91,24.74 68.72,24.74 20.87,0 44.9,-6.11 71.88,-18.22l0 53.65c-27.18,10.18 -53.86,15.27 -79.92,15.27l-3.87 0z"/>
   <path class="fil4" d="M1017.68 1503.48c0,-29.22 10.69,-52.33 32.07,-69.33 21.38,-17 50.6,-25.45 87.56,-25.45l113.01 0 0 42.35 -55.49 0c10.79,10.89 18.22,20.87 22.4,29.83 4.18,8.96 6.31,19.14 6.31,30.65 0,14.35 -4.07,28.4 -12.22,42.25 -8.15,13.85 -18.73,24.43 -31.46,31.77 -12.83,7.33 -33.9,13.23 -63.12,17.61 -20.46,2.95 -30.75,9.98 -30.75,21.18 0,6.31 3.87,11.61 11.5,15.68 7.64,4.07 21.48,8.25 41.64,12.63 33.6,7.33 55.18,13.13 64.85,17.3 9.67,4.18 18.33,10.18 26.06,17.92 13.13,13.13 19.75,29.63 19.75,49.48 0,26.06 -11.61,46.83 -34.82,62.41 -23.11,15.48 -54.16,23.21 -92.85,23.21 -39.2,0 -70.45,-7.84 -93.87,-23.41 -23.31,-15.58 -35.02,-36.55 -35.02,-62.82 0,-37.16 23.01,-61.08 68.92,-71.87 -18.33,-11.71 -27.49,-23.31 -27.49,-34.82 0,-8.75 3.97,-16.8 11.81,-23.93 7.84,-7.12 18.43,-12.42 31.77,-15.78 -40.42,-17.92 -60.58,-46.83 -60.58,-86.84zm102.01 -47.65c-14.66,0 -27.18,4.89 -37.57,14.86 -10.38,9.98 -15.47,21.89 -15.47,35.84 0,14.05 5.09,25.76 15.17,35.02 10.18,9.27 23.01,13.85 38.48,13.85 15.27,0 0.86,-4.66 11.11,-14.15 10.2,-9.44 15.27,-21.28 15.27,-35.33 0,-14.36 -5.09,-26.27 -15.47,-35.84 -10.38,-9.57 4.06,-14.25 -11.52,-14.25zm-12.83 240.06c-18.22,0 -33.19,3.87 -44.9,11.61 -11.61,7.74 -17.41,17.71 -17.41,29.83 0,28.31 25.45,42.35 76.35,42.35 24.03,0 42.66,-3.46 55.89,-10.59 13.24,-7.03 19.85,-17 19.85,-29.93 0,-12.73 -8.35,-23.11 -25.04,-31.16 -16.7,-8.04 -38.28,-12.11 -64.75,-12.11zm163.53 -402.65c8.96,0 16.59,3.06 23.01,9.26 6.31,6.11 9.57,13.64 9.57,22.6 0,8.75 -3.26,16.39 -9.57,22.7 -6.41,6.41 -14.05,9.57 -23.01,9.57 -8.35,0 -15.68,-3.26 -21.99,-9.67 -6.41,-6.52 -9.57,-14.05 -9.57,-22.6 0,-8.35 3.16,-15.68 9.57,-22.2 6.31,-6.41 13.64,-9.67 21.99,-9.67zm-26.78 115.45l54.26 0 0 274.37 -54.26 0 0 -274.37zm83.81 -142.33l54.26 0 0 416.7 -54.26 0 0 -416.7z"/>
  </g>
 </g>
</svg>
