<?xml version="1.0" encoding="UTF-8"?>
<!DOCTYPE svg PUBLIC "-//W3C//DTD SVG 1.1//EN" "http://www.w3.org/Graphics/SVG/1.1/DTD/svg11.dtd">
<!-- Creator: CorelDRAW 2021 (64-Bit) -->
<svg xmlns="http://www.w3.org/2000/svg" xml:space="preserve" width="708.802mm" height="236.429mm" version="1.1" style="shape-rendering:geometricPrecision; text-rendering:geometricPrecision; image-rendering:optimizeQuality; fill-rule:evenodd; clip-rule:evenodd"
viewBox="0 0 12166.51 4058.29"
 xmlns:xlink="http://www.w3.org/1999/xlink"
 xmlns:xodm="http://www.corel.com/coreldraw/odm/2003">
 <defs>
  <style type="text/css">
   <![CDATA[
    .fil2 {fill:#2B2A29}
    .fil1 {fill:#E84F28}
    .fil0 {fill:#E31E24}
    .fil4 {fill:#434242;fill-rule:nonzero}
    .fil3 {fill:#2B2A29;fill-rule:nonzero}
   ]]>
  </style>
 </defs>
 <g id="Layer_x0020_1">
  <metadata id="CorelCorpID_0Corel-Layer"/>
  <g id="_1969949595776">
   <path class="fil0" d="M2294.3 2710.17c-303.25,-626.4 -590.71,-1266.19 -893.96,-1892.61 -672.78,-934.89 -1855.37,124.08 -1217.36,916.59 590.54,454.86 1078.03,850.62 1668.57,1305.49 300.54,-54.09 410.87,-174.48 442.74,-329.47z"/>
   <path class="fil0" d="M2757.52 2570.56c-52.16,-482.38 -207.64,-1394.11 -227.55,-1753 -73.73,-1172.94 -1523.19,-1004.4 -1017.63,1.44 266.77,532.07 546.41,1306.2 845.62,1874.82 166.6,43.77 366.2,-28.36 399.55,-123.27z"/>
   <path class="fil1" d="M3147.28 2604.78c112.68,-464.15 295.75,-1097.05 395.78,-1436.94 81.94,-863.73 -819.95,-1135.57 -913.85,-578.3 -18.01,184.9 7.28,384.74 45.01,708.39 45.54,390.63 109.99,836.01 144.23,1264.1 92.09,121.46 258.37,108.22 328.83,42.74z"/>
   <path class="fil1" d="M3469.86 2889.65l579.72 -815.73c257,-403.38 -145.15,-1439.22 -370.86,-906.07 -17.97,32.11 -399.12,1225.79 -479.67,1457.49 4.68,233.62 200.23,304.67 270.81,264.31z"/>
   <path class="fil2" d="M2347.9 2740.11c181.93,24.13 375.89,-5.91 443.79,-147.79 108.83,141.57 299.26,141.5 374.34,58.86 -3.74,174.49 83.11,274.43 250.35,299.55 -77.76,116.65 -216.29,255.57 -287.45,32.95 -75.59,375.22 -151.17,626.24 -226.75,1001.46 -82.35,40.02 -142.96,46.9 -226.25,0 -43.85,-349.34 -87.71,-574.47 -131.56,-923.81 -141.39,256.29 -354.68,239.64 -611.17,11.56 69.54,-31.5 341.68,-42.45 414.69,-332.78z"/>
  </g>
  <g id="_1969949595632">
   <path class="fil3" d="M4411.39 3188.52l238.96 -234.94 0 133.13 203.21 0 0 114.44 -203.21 0 0 314.82c0,73.44 30.54,110.21 91.61,110.21 45.53,0 93.7,-14.84 144.5,-44.42l0 117.85c-48.86,27.41 -102.3,41.01 -160.04,41.01 -58.17,0 -106.82,-16.92 -145.47,-51.01 -12.15,-10.27 -22.15,-21.73 -30.05,-34.63 -7.85,-12.85 -14.52,-29.56 -19.78,-50.31 -5.49,-20.76 -8.12,-60.11 -8.12,-118.54l0 -284.99 -111.6 0 0 -12.63zm1005.84 228.69l-452.23 0c3.33,62.04 23.87,111.39 61.77,148.1 37.95,36.72 87.09,55.12 147.19,55.12 83.71,0 160.96,-25.75 231.82,-77.25l0 123.75c-39.14,26.01 -78.01,44.35 -116.4,55.59 -38.38,11.18 -83.48,16.67 -135.25,16.67 -70.8,0 -128.06,-14.8 -171.93,-44.1 -43.65,-29.34 -78.7,-68.91 -104.94,-118.8 -26.5,-49.56 -39.62,-107.31 -39.62,-172.68 0,-97.99 27.69,-177.66 83.27,-239.18 55.32,-61.28 127.35,-92.09 216.06,-92.09 85.16,0 153.32,29.85 204.12,89.46 50.8,59.4 76.12,139.29 76.12,239.45l0 15.96zm-449.32 -75.81l323.36 0c-3.33,-50.78 -18.33,-89.94 -45.32,-117.62 -27.15,-27.42 -63.44,-41.22 -108.97,-41.22 -45.81,0 -83.01,13.81 -112.09,41.22 -29.09,27.69 -48.17,66.84 -56.99,117.62zm894.88 -254.69l152.41 0 -273.11 313.84 328.91 328.64 -170.74 0 -321.54 -326.98 284.07 -315.5zm-417.12 -333.43l127.36 0 0 975.91 -127.36 0 0 -975.91zm703.88 333.43l0 80.09c56.76,-62.95 121.39,-94.46 193.43,-94.46 40.05,0 77.25,10.55 111.82,31.24 34.35,20.75 60.58,49.14 78.49,85.43 17.9,36.22 26.93,93.48 26.93,171.92l0 368.26 -127.36 0 0 -367.29c0,-65.81 -10,-113.06 -30.05,-141.17 -20,-28.39 -53.38,-42.48 -100.36,-42.48 -60.11,0 -110.91,30.05 -152.89,90.15l0 460.79 -130.21 0 0 -642.48 130.21 0zm786.39 -1.46c98,0 179.12,31.44 243.96,94.66 64.66,63.23 97.08,142.41 97.08,238.06 0,92.51 -32.9,169.56 -98.49,230.83 -65.58,61.3 -148.37,91.82 -248.05,91.82 -96.33,0 -176.98,-31.01 -241.86,-93.27 -64.62,-62.26 -97.04,-139.99 -97.04,-232.99 0,-94.2 32.69,-172.41 98.27,-235.14 65.32,-62.75 147.36,-93.97 246.12,-93.97zm-6.67 114.45c-61.07,0 -111.18,20.06 -150.26,60.11 -39.14,40.09 -58.71,91.12 -58.71,153.11 0,61.54 20.05,111.64 60.11,150.52 40.11,38.86 91.61,58.43 154.56,58.43 62.52,0 113.54,-19.84 153.38,-59.19 39.83,-39.36 59.83,-89.68 59.83,-151.17 0,-61.08 -20.75,-111.62 -62.25,-151.71 -41.5,-40.05 -93.71,-60.11 -156.65,-60.11zm383.09 -446.42l127.36 0 0 975.91 -127.36 0 0 -975.91zm509.05 331.98c98,0 179.13,31.44 243.96,94.66 64.67,63.23 97.09,142.41 97.09,238.06 0,92.51 -32.9,169.56 -98.49,230.83 -65.59,61.3 -148.38,91.82 -248.05,91.82 -96.34,0 -176.98,-31.01 -241.86,-93.27 -64.62,-62.26 -97.04,-139.99 -97.04,-232.99 0,-94.2 32.69,-172.41 98.27,-235.14 65.31,-62.75 147.35,-93.97 246.11,-93.97zm-6.67 114.45c-61.06,0 -111.17,20.06 -150.26,60.11 -39.13,40.09 -58.71,91.12 -58.71,153.11 0,61.54 20.06,111.64 60.11,150.52 40.1,38.86 91.61,58.43 154.56,58.43 62.52,0 113.55,-19.84 153.38,-59.19 39.84,-39.36 59.84,-89.68 59.84,-151.17 0,-61.08 -20.75,-111.62 -62.25,-151.71 -41.51,-40.05 -93.71,-60.11 -156.66,-60.11zm438.89 -383.46c21.02,0 38.66,7.36 53.65,21.93 14.78,14.79 22.21,32.42 22.21,52.69 0,21.5 -7.16,39.62 -21.24,53.91 -14.08,14.58 -31.93,21.73 -53.16,21.73 -20.05,0 -37.69,-7.42 -52.96,-22.41 -15.26,-14.8 -22.9,-32.7 -22.9,-53.23 0,-19.53 7.64,-36.72 22.69,-51.98 15,-15 32.15,-22.64 51.71,-22.64zm-60.1 270.47l127.35 0 0 735.26c0,111.39 -42.69,190.05 -128.06,236.32l-95.15 -92.99c29.36,-10.27 52.69,-28.17 69.89,-53.93 17.42,-25.47 25.97,-55.53 25.97,-89.4l0 -735.26zm271.75 -270.47c20.96,0 38.87,7.14 53.65,21.67 15.05,14.34 22.41,32.19 22.41,52.95 0,20.53 -7.36,38.43 -22.41,53.23 -14.78,14.99 -32.69,22.41 -53.65,22.41 -19.57,0 -36.99,-7.63 -51.77,-22.68 -15,-15.27 -22.42,-32.9 -22.42,-52.96 0,-19.53 7.42,-36.72 22.42,-51.98 14.78,-15 32.2,-22.64 51.77,-22.64zm-62.73 270.47l127.35 0 0 642.48 -127.35 0 0 -642.48z"/>
   <path class="fil3" d="M3517.23 40.5l2466.04 0 0 332.67 -1196.52 0 0 2279.66 -375.37 0 0 -2279.66 -894.15 0 0 -332.67zm1827.94 894.8l0 393.85 19.13 -29.95c167.65,-262.7 328.22,-363.9 492.64,-363.9 128.09,0 261.93,31.22 401.5,160.59l-179.08 298.26c-118.54,-111.51 -228.15,-167.6 -328.85,-167.6 -109.62,0 -204.57,52.26 -284.88,156.77 -80.3,104.52 -120.45,228.16 -120.45,371.56l0 897.96 -341.59 0 0 -1717.54 341.59 0zm1740 1717.54l0 -218.6c-72.65,78.4 -154.87,139.56 -247.28,182.91 -93.05,43.96 -185.46,65.64 -277.87,65.64 -107.71,0 -207.76,-27.4 -299.54,-81.57 -91.12,-54.17 -160.6,-127.47 -207.12,-219.88 -46.52,-93.05 -70.1,-246.63 -70.1,-462.05l0 -983.99 339.67 0 0 980.18c0,180.35 26.14,306.55 77.76,377.92 51.62,71.37 142.12,107.07 271.5,107.07 161.87,0 299.53,-79.04 412.97,-237.08l0 -1228.08 339.68 0 0 1717.54 -339.68 0zm346.83 -1717.54l0 217.96c151.69,-167.63 324.39,-217.96 517.49,-217.96 107.07,0 206.41,-6.24 298.27,49.07 92.32,55.59 162.51,131.29 210.31,228.15 47.8,96.23 72.02,249.18 72.02,458.22l0 982.1 -339.69 0 0 -978.28c0,-175.88 -26.76,-300.79 -80.29,-375.99 -53.54,-75.84 -143.4,-113.45 -268.95,-113.45 -160.61,0 -296.98,80.3 -409.16,240.91l0 1226.82 -347.32 0 0 -1717.54 347.32 0zm1945.85 1747.49l-8.92 31.87c66.91,15.92 119.81,47.16 157.42,93.05 38.24,45.88 56.72,98.14 56.72,156.77 0,94.95 -37.6,175.27 -113.43,242.17 -75.84,66.29 -197.57,99.42 -364.54,99.42 -45.89,0 -86.04,-2.54 -121.09,-8.92l0 -210.95c63.73,4.46 103.24,7.01 119.81,7.01 70.74,0 126.19,-13.39 165.7,-40.79 23.57,-15.92 35.69,-37.59 35.69,-63.74 0,-29.94 -12.75,-54.8 -38.24,-74.55 -25.5,-19.77 -72.65,-29.95 -140.84,-29.95 -14.03,0 -28.05,1.91 -43.34,5.73l82.21 -229.42c-161.88,-36.32 -309.73,-121.09 -444.21,-254.92 -134.47,-133.84 -201.38,-334.6 -201.38,-602.27 0,-270.21 77.91,-488.04 233.25,-653.23 155.66,-165.55 360.08,-214.77 614.37,-214.77 228.73,0 273.92,-14.36 498.37,85.4l0 362.62c-172.06,-109.62 -331.4,-164.42 -477.97,-164.42 -152.96,0 -279.15,53.53 -377.29,161.23 -98.14,107.72 -147.21,245.37 -147.21,411.71 0,175.9 52.89,315.46 159.33,418.7 106.42,103.25 249.82,154.87 430.18,154.87 130.65,0 281.05,-38.24 449.94,-114.07l0 335.85c-170.16,63.73 -337.14,95.6 -500.29,95.6l-24.21 0z"/>
   <path class="fil4" d="M9887.84 1528.62c0,-182.89 66.92,-327.57 200.75,-434.01 133.83,-106.42 316.74,-159.31 548.09,-159.31l707.41 0 0 265.12 -347.34 0c67.56,68.18 114.08,130.65 140.21,186.72 26.14,56.09 39.51,119.81 39.51,191.84 0,89.85 -25.49,177.81 -76.47,264.47 -50.99,86.68 -117.26,152.96 -196.93,198.86 -80.3,45.87 -212.22,82.83 -395.13,110.24 -128.09,18.48 -192.47,62.46 -192.47,132.56 0,39.51 24.22,72.65 72.02,98.14 47.8,25.48 134.47,51.63 260.66,79.04 210.32,45.88 345.43,82.2 405.97,108.33 60.54,26.15 114.72,63.74 163.14,112.17 82.21,82.21 123.64,185.45 123.64,309.72 0,163.15 -72.65,293.18 -217.96,390.68 -144.67,96.87 -339.05,145.3 -581.22,145.3 -245.36,0 -441.02,-49.07 -587.6,-146.57 -145.94,-97.51 -219.23,-228.79 -219.23,-393.23 0,-232.61 144.04,-382.37 431.46,-449.92 -114.71,-73.29 -172.07,-145.94 -172.07,-217.96 0,-54.8 24.85,-105.16 73.92,-149.78 49.08,-44.6 115.36,-77.74 198.85,-98.78 -253.01,-112.17 -379.21,-293.16 -379.21,-543.63zm638.58 -298.26c-91.77,0 -170.16,30.6 -235.16,93.05 -65.01,62.46 -96.87,137.03 -96.87,224.34 0,87.94 31.86,161.23 94.96,219.22 63.73,58 144.03,86.69 240.9,86.69 95.6,0 5.36,-29.18 69.57,-88.6 63.88,-59.11 95.6,-133.19 95.6,-221.13 0,-89.87 -31.87,-164.43 -96.87,-224.35 -65.01,-59.9 25.39,-89.22 -72.12,-89.22zm-80.3 1502.79c-114.08,0 -207.76,24.2 -281.05,72.65 -72.65,48.43 -108.97,110.89 -108.97,186.72 0,177.19 159.32,265.12 477.97,265.12 150.41,0 267.03,-21.66 349.88,-66.26 82.85,-43.98 124.28,-106.44 124.28,-187.37 0,-79.67 -52.25,-144.69 -156.77,-195.03 -104.51,-50.34 -239.63,-75.82 -405.33,-75.82zm1023.66 -2520.57c56.09,0 103.88,19.14 144.04,58 39.51,38.24 59.9,85.4 59.9,141.49 0,54.8 -20.39,102.59 -59.9,142.1 -40.15,40.15 -87.95,59.91 -144.04,59.91 -52.26,0 -98.14,-20.39 -137.66,-60.53 -40.15,-40.8 -59.9,-87.96 -59.9,-141.48 0,-52.27 19.76,-98.14 59.9,-138.95 39.51,-40.15 85.4,-60.54 137.66,-60.54zm-167.61 722.72l339.68 0 0 1717.54 -339.68 0 0 -1717.54zm524.65 -890.95l339.67 0 0 2608.49 -339.67 0 0 -2608.49z"/>
  </g>
 </g>
</svg>
