<?xml version="1.0" encoding="UTF-8"?>
<!DOCTYPE svg PUBLIC "-//W3C//DTD SVG 1.1//EN" "http://www.w3.org/Graphics/SVG/1.1/DTD/svg11.dtd">
<!-- Creator: CorelDRAW 2021 (64-Bit) -->
<svg xmlns="http://www.w3.org/2000/svg" xml:space="preserve" width="27.1932mm" height="27.1932mm" version="1.1" shape-rendering="geometricPrecision" text-rendering="geometricPrecision" image-rendering="optimizeQuality" fill-rule="evenodd" clip-rule="evenodd"
viewBox="0 0 269.91 269.91"
 xmlns:xlink="http://www.w3.org/1999/xlink"
 xmlns:xodm="http://www.corel.com/coreldraw/odm/2003">
 <g id="Layer_x0020_1">
  <metadata id="CorelCorpID_0Corel-Layer"/>
  <rect fill="none" width="269.91" height="269.91"/>
  <g id="_2423565893264">
   <path fill="#252B3C" fill-rule="nonzero" d="M211.65 102.52c-13.54,-3.22 -28.61,5.86 -43.01,11.59 -11.1,4.41 -21.8,6.83 -31.1,0.08 -17.9,-13 -10.43,-42.72 -26.75,-57.9 -11.38,-10.59 -29.36,-11.28 -43.16,-5.47 -14.72,6.21 -25.92,18.66 -34.85,31.91 -9.64,14.3 -17.3,30.22 -20.19,47.22 -5.03,29.66 5.29,60.9 24.76,83.84 19.47,22.93 47.38,37.86 76.72,44.5 13.25,3 26.93,4.4 40.45,3.08 26.22,-2.55 51.26,-15.74 68.2,-35.92 14.73,-17.55 23.89,-41.37 24.11,-64.64 0.22,-23.37 -9.96,-52.29 -35.18,-58.28l0 0zm-107.5 25.92c-1.51,1.09 -3.31,1.87 -5.18,1.89 -5.88,0.07 -8.9,-6.09 -10.47,-10.82 -1.35,-4.05 -2.65,-7.94 -5.15,-11.46 -2.39,-3.36 -5.52,-6.04 -8.95,-8.29 -2.72,-1.79 -6.42,-3.73 -7.93,-6.73 -1.62,-3.22 -2,-7.18 -1.32,-10.69 0.81,-4.14 3.39,-8.71 7.16,-10.84 9.5,-5.37 18.6,3.63 22.8,11.35 0.6,1.09 1.18,2.19 1.76,3.3 2.46,4.72 4.79,9.54 7.2,14.28 1.44,2.83 2.86,5.68 4.11,8.6 0.8,1.86 1.81,3.96 1.93,6.02 0.3,5.09 -1.83,10.41 -5.96,13.4l0 -0zm0 0z"/>
   <path fill="black" fill-rule="nonzero" d="M129.39 258.28c-29.34,-6.64 -57.25,-21.57 -76.72,-44.5 -19.47,-22.93 -29.79,-54.18 -24.76,-83.84 2.89,-17.01 10.55,-32.92 20.18,-47.22 8.93,-13.25 20.13,-25.7 34.85,-31.91 3.25,-1.37 6.74,-2.37 10.31,-2.98 -8.57,-1.53 -17.78,-0.33 -25.63,2.98 -14.72,6.21 -25.92,18.66 -34.85,31.91 -9.64,14.3 -17.3,30.22 -20.19,47.22 -5.03,29.66 5.28,60.9 24.76,83.84 19.47,22.93 47.38,37.86 76.72,44.5 12.32,2.79 25.02,4.19 37.61,3.32 -7.5,-0.49 -14.96,-1.66 -22.29,-3.32l0 0zm0 0z"/>
   <path fill="#FE4455" fill-rule="nonzero" d="M65.05 137.53c0,8.03 -6.51,14.53 -14.53,14.53 -8.03,0 -14.53,-6.51 -14.53,-14.53 0,-8.03 6.51,-14.54 14.53,-14.54 8.03,0 14.53,6.51 14.53,14.54zm0 0z"/>
   <path fill="#FF646F" fill-rule="nonzero" d="M80.8 188.65c0,8.03 -6.51,14.53 -14.53,14.53 -8.03,0 -14.53,-6.51 -14.53,-14.53 0,-8.03 6.51,-14.53 14.53,-14.53 8.03,0 14.53,6.51 14.53,14.53zm0 0z"/>
   <path fill="#FFD480" fill-rule="nonzero" d="M124.82 221.69c0,8.03 -6.51,14.53 -14.53,14.53 -8.03,0 -14.53,-6.51 -14.53,-14.53 0,-8.03 6.51,-14.54 14.53,-14.54 8.03,0 14.53,6.51 14.53,14.54zm0 0z"/>
   <path fill="#A5CDFF" fill-rule="nonzero" d="M183.32 224.08c0,8.03 -6.51,14.54 -14.53,14.54 -8.03,0 -14.53,-6.51 -14.53,-14.54 0,-8.03 6.51,-14.53 14.53,-14.53 8.03,0 14.53,6.51 14.53,14.53zm0 0z"/>
   <path fill="#FFD480" fill-rule="nonzero" d="M209.79 79.52c0.08,-0 19.05,-4.28 26.35,-10.59l1.6 -1.38c4.9,-4.23 8.88,-9.45 11.49,-15.37 4.23,-9.62 6.05,-19.98 7.44,-27.81 0.89,-5.04 1.12,-10.12 1.88,-15.16 0.18,-1.16 -1.31,-1.61 -2.01,-0.61 -7.04,9.99 -16.15,18.05 -27.31,23.18 -9.51,4.37 -35.82,5.19 -33.93,32.69l-0.41 16 14.9 -0.95zm0 0z"/>
   <path fill="gray" fill-rule="nonzero" d="M194.93 64.08l16.39 17.03c1.19,1.23 1.11,3.2 -0.16,4.34l-185.25 165.99c-2.86,2.58 -7.15,2.47 -9.68,-0.16 -2.53,-2.63 -2.47,-6.93 0.22,-9.68l174.15 -177.54c1.19,-1.21 3.15,-1.2 4.33,0.02zm0 0z"/>
   <path fill="#666666" fill-rule="nonzero" d="M31.77 241.6l168.59 -171.87 -5.43 -5.65c-1.18,-1.22 -3.14,-1.23 -4.33,-0.02l-174.15 177.54c-2.69,2.75 -2.75,7.05 -0.22,9.68 2.53,2.63 6.83,2.74 9.68,0.16l3.92 -3.51c-0.42,-2.18 0.22,-4.57 1.94,-6.33zm0 0z"/>
   <path fill="#F2BD5F" fill-rule="nonzero" d="M258.56 9.21c-0.75,5.04 -0.98,10.12 -1.88,15.16 -1.39,7.83 -3.21,18.18 -7.44,27.81 -2.6,5.93 -6.59,11.15 -11.49,15.37l-1.6 1.38c-7.31,6.31 -26.27,10.58 -26.36,10.59l-6.65 -6.91c3.99,-24.2 18.05,-11.95 30.93,-24.58 12.5,-12.27 19.88,-29.37 23.75,-39.96 0.47,0.11 0.84,0.53 0.75,1.14l0 0zm0 0z"/>
   <path fill="#B1F192" fill-rule="nonzero" d="M211.16 85.45l-12.68 11.37 -20.32 -20.07 12.45 -12.69c1.19,-1.21 3.15,-1.2 4.33,0.02l0.37 0.39 0 0 7.83 8.14 6.65 6.91 1.53 1.59c1.19,1.23 1.11,3.2 -0.16,4.34l0 0zm0 0z"/>
   <path fill="#A1D685" fill-rule="nonzero" d="M200.23 69.59l-4.92 -5.11 0 -0.01 -0.37 -0.39c-1.18,-1.22 -3.14,-1.23 -4.33,-0.02l-12.45 12.69 7.64 7.55 14.43 -14.71zm0 0z"/>
  </g>
 </g>
</svg>
