<?xml version="1.0" encoding="UTF-8"?>
<!DOCTYPE svg PUBLIC "-//W3C//DTD SVG 1.1//EN" "http://www.w3.org/Graphics/SVG/1.1/DTD/svg11.dtd">
<!-- Creator: CorelDRAW 2021 (64-Bit) -->
<svg xmlns="http://www.w3.org/2000/svg" xml:space="preserve" width="294.815mm" height="394.196mm" version="1.1" shape-rendering="geometricPrecision" text-rendering="geometricPrecision" image-rendering="optimizeQuality" fill-rule="evenodd" clip-rule="evenodd"
viewBox="0 0 26829.91 35874.2"
 xmlns:xlink="http://www.w3.org/1999/xlink"
 xmlns:xodm="http://www.corel.com/coreldraw/odm/2003">
 <g id="Layer_x0020_1">
  <metadata id="CorelCorpID_0Corel-Layer"/>
  <g id="_2355083696336">
   <path fill="white" fill-rule="nonzero" d="M3798.81 33436.12l669.83 -658.56 0 373.17 569.64 0 0 320.79 -569.64 0 0 882.49c0,205.86 85.6,308.95 256.79,308.95 127.63,0 262.65,-41.59 405.06,-124.51l0 330.36c-136.97,76.83 -286.77,114.95 -448.62,114.95 -163.05,0 -299.42,-47.44 -407.76,-142.98 -34.06,-28.79 -62.09,-60.9 -84.24,-97.08 -22.01,-36.01 -40.7,-82.86 -55.46,-141.02 -15.38,-58.2 -22.77,-168.52 -22.77,-332.29l0 -798.87 -312.82 0 0 -35.39zm2819.51 641.05l-1267.66 0c9.35,173.9 66.91,312.25 173.15,415.15 106.39,102.94 244.14,154.52 412.6,154.52 234.64,0 451.2,-72.2 649.82,-216.56l0 346.89c-109.73,72.92 -218.66,124.32 -326.27,155.84 -107.59,31.33 -234.02,46.71 -379.14,46.71 -198.47,0 -358.96,-41.48 -481.93,-123.61 -122.37,-82.24 -220.62,-193.16 -294.16,-333.02 -74.28,-138.93 -111.05,-300.8 -111.05,-484.04 0,-274.7 77.61,-498.02 233.42,-670.46 155.06,-171.76 356.99,-258.15 605.65,-258.15 238.71,0 429.78,83.67 572.19,250.78 142.42,166.51 213.38,390.46 213.38,671.21l0 44.74zm-1259.51 -212.49l906.43 0c-9.34,-142.36 -51.37,-252.1 -127.03,-329.71 -76.1,-76.85 -177.83,-115.55 -305.46,-115.55 -128.4,0 -232.68,38.7 -314.2,115.55 -81.53,77.61 -135.04,187.35 -159.74,329.71zm2508.49 -713.95l427.23 0 -765.56 879.73 921.97 921.24 -478.61 0 -901.32 -916.58 796.29 -884.39zm-1169.26 -934.67l357.02 0 0 2735.63 -357.02 0 0 -2735.63zm1973.07 934.67l0 224.49c159.11,-176.45 340.28,-264.78 542.2,-264.78 112.27,0 216.53,29.57 313.45,87.58 96.29,58.17 169.81,137.76 220.02,239.48 50.17,101.53 75.5,262.05 75.5,481.91l0 1032.28 -357.02 0 0 -1029.58c0,-184.47 -28.03,-316.94 -84.24,-395.71 -56.06,-79.58 -149.61,-119.06 -281.33,-119.06 -168.49,0 -310.89,84.24 -428.58,252.71l0 1291.65 -365.01 0 0 -1800.96 365.01 0zm2204.38 -4.09c274.72,0 502.1,88.15 683.86,265.36 181.27,177.23 272.14,399.2 272.14,667.31 0,259.31 -92.23,475.3 -276.07,647.06 -183.85,171.82 -415.92,257.38 -695.32,257.38 -270.03,0 -496.08,-86.92 -677.98,-261.44 -181.14,-174.52 -272.02,-392.41 -272.02,-653.1 0,-264.04 91.63,-483.29 275.48,-659.14 183.11,-175.91 413.08,-263.43 689.91,-263.43zm-18.69 320.81c-171.19,0 -311.65,56.24 -421.18,168.51 -109.73,112.38 -164.58,255.42 -164.58,429.18 0,172.52 56.21,312.95 168.49,421.95 112.43,108.93 256.78,163.77 433.26,163.77 175.25,0 318.27,-55.61 429.94,-165.91 111.65,-110.32 167.71,-251.38 167.71,-423.74 0,-171.22 -58.17,-312.87 -174.5,-425.25 -116.33,-112.26 -262.67,-168.51 -439.12,-168.51zm1073.85 -1251.4l357.02 0 0 2735.63 -357.02 0 0 -2735.63zm1426.93 930.58c274.72,0 502.13,88.15 683.86,265.36 181.29,177.23 272.17,399.2 272.17,667.31 0,259.31 -92.23,475.3 -276.08,647.06 -183.87,171.82 -415.93,257.38 -695.31,257.38 -270.06,0 -496.09,-86.92 -677.98,-261.44 -181.14,-174.52 -272.02,-392.41 -272.02,-653.1 0,-264.04 91.63,-483.29 275.48,-659.14 183.09,-175.91 413.05,-263.43 689.87,-263.43zm-18.68 320.81c-171.16,0 -311.62,56.24 -421.19,168.51 -109.69,112.38 -164.56,255.42 -164.56,429.18 0,172.52 56.21,312.95 168.49,421.95 112.4,108.93 256.79,163.77 433.24,163.77 175.25,0 318.28,-55.61 429.93,-165.91 111.67,-110.32 167.73,-251.38 167.73,-423.74 0,-171.22 -58.16,-312.87 -174.49,-425.25 -116.36,-112.26 -262.67,-168.51 -439.15,-168.51zm1230.28 -1074.89c58.93,0 108.37,20.64 150.41,61.47 41.43,41.46 62.25,90.89 62.25,147.69 0,60.27 -20.07,111.05 -59.55,151.13 -39.48,40.85 -89.5,60.89 -149.02,60.89 -56.21,0 -105.63,-20.79 -148.44,-62.82 -42.79,-41.48 -64.2,-91.66 -64.2,-149.2 0,-54.73 21.41,-102.93 63.6,-145.71 42.03,-42.05 90.12,-63.45 144.95,-63.45zm-168.46 758.16l356.99 0 0 2061.03c0,312.25 -119.66,532.74 -358.96,662.45l-266.73 -260.67c82.29,-28.79 147.69,-78.97 195.92,-151.18 48.82,-71.39 72.79,-155.66 72.79,-250.6l0 -2061.03zm761.76 -758.16c58.77,0 108.97,20.01 150.41,60.74 42.18,40.22 62.82,90.23 62.82,148.42 0,57.54 -20.64,107.72 -62.82,149.2 -41.44,42.04 -91.63,62.82 -150.41,62.82 -54.86,0 -103.68,-21.39 -145.11,-63.58 -42.06,-42.81 -62.86,-92.23 -62.86,-148.45 0,-54.73 20.79,-102.93 62.86,-145.71 41.43,-42.05 90.25,-63.45 145.11,-63.45zm-175.85 758.16l356.99 0 0 1800.96 -356.99 0 0 -1800.96z"/>
   <path fill="white" fill-rule="nonzero" d="M1292.36 24611.75l6912.66 0 0 932.53 -3354.02 0 0 6390.24 -1052.22 0 0 -6390.24 -2506.42 0 0 -932.53zm5123.98 2508.25l0 1104.01 53.61 -83.96c469.96,-736.38 920.03,-1020.05 1380.94,-1020.05 359.07,0 734.22,87.52 1125.45,450.15l-502 836.05c-332.28,-312.59 -639.54,-469.8 -921.81,-469.8 -307.27,0 -573.44,146.49 -798.55,439.46 -225.09,292.99 -337.65,639.57 -337.65,1041.53l0 2517.13 -957.52 0 0 -4814.52 957.52 0zm4877.47 4814.52l0 -612.76c-203.65,219.75 -434.13,391.21 -693.16,512.72 -260.82,123.23 -519.88,184 -778.9,184 -301.92,0 -582.39,-76.8 -839.66,-228.65 -255.44,-151.86 -450.18,-357.33 -580.59,-616.36 -130.41,-260.82 -196.49,-691.33 -196.49,-1295.19l0 -2758.27 952.16 0 0 2747.57c0,505.54 73.26,859.3 217.96,1059.38 144.7,200.06 398.39,300.12 761.06,300.12 453.75,0 839.62,-221.55 1157.62,-664.58l0 -3442.49 952.18 0 0 4814.52 -952.18 0zm972.22 -4814.52l0 610.96c425.2,-469.88 909.32,-610.96 1450.62,-610.96 300.12,0 578.59,-17.49 836.08,137.54 258.79,155.81 455.55,368.02 589.52,639.54 133.98,269.75 201.88,698.49 201.88,1284.47l0 2752.97 -952.2 0 0 -2742.27c0,-493.02 -75.01,-843.16 -225.07,-1053.96 -150.09,-212.6 -401.98,-318.03 -753.89,-318.03 -450.21,0 -832.5,225.09 -1146.93,675.3l0 3438.96 -973.6 0 0 -4814.52 973.6 0zm5454.51 4898.47l-25.02 89.35c187.56,44.63 335.86,132.2 441.26,260.82 107.2,128.61 158.99,275.11 158.99,439.46 0,266.16 -105.4,491.3 -317.97,678.84 -212.6,185.82 -553.82,278.7 -1021.85,278.7 -128.65,0 -241.17,-7.13 -339.44,-25.01l0 -591.31c178.64,12.49 289.4,19.65 335.85,19.65 198.29,0 353.74,-37.53 464.5,-114.36 66.07,-44.63 100.03,-105.38 100.03,-178.66 0,-83.93 -35.73,-153.63 -107.2,-208.98 -71.47,-55.41 -203.64,-83.96 -394.8,-83.96 -39.32,0 -78.62,5.36 -121.48,16.06l230.45 -643.11c-453.77,-101.81 -868.22,-339.44 -1245.17,-714.57 -376.95,-375.18 -564.51,-937.94 -564.51,-1688.25 0,-757.43 218.4,-1368.04 653.82,-1831.1 436.34,-464.05 1009.37,-602.03 1722.16,-602.03 641.16,0 767.84,-40.26 1397.01,239.37l0 1016.49c-482.32,-307.28 -928.97,-460.91 -1339.83,-460.91 -428.77,0 -782.5,150.07 -1057.61,451.95 -275.11,301.95 -412.66,687.8 -412.66,1154.08 0,493.08 148.27,884.29 446.62,1173.69 298.33,289.43 700.28,434.13 1205.85,434.13 366.23,0 787.83,-107.2 1261.25,-319.75l0 941.44c-476.98,178.64 -945.04,267.98 -1402.38,267.98l-67.87 0z"/>
   <path fill="white" fill-rule="nonzero" d="M19150.13 28783.16c0,-512.67 187.59,-918.22 562.74,-1216.6 375.15,-298.3 887.87,-446.56 1536.37,-446.56l1982.98 0 0 743.17 -973.65 0c189.38,191.12 319.8,366.23 393.04,523.38 73.26,157.22 110.76,335.86 110.76,537.76 0,251.87 -71.47,498.43 -214.37,741.35 -142.92,242.97 -328.7,428.76 -552.02,557.43 -225.09,128.59 -594.89,232.19 -1107.61,309.02 -359.07,51.79 -539.53,175.1 -539.53,371.59 0,110.76 67.9,203.64 201.88,275.11 133.98,71.44 376.95,144.73 730.66,221.55 589.55,128.62 968.29,230.43 1137.99,303.66 169.72,73.29 321.57,178.66 457.31,314.43 230.45,230.45 346.58,519.85 346.58,868.2 0,457.34 -203.64,821.83 -610.97,1095.14 -405.52,271.55 -950.41,407.3 -1629.24,407.3 -687.8,0 -1236.25,-137.55 -1647.14,-410.86 -409.09,-273.34 -614.53,-641.34 -614.53,-1102.29 0,-652.03 403.75,-1071.84 1209.43,-1261.21 -321.56,-205.44 -482.35,-409.08 -482.35,-610.96 0,-153.63 69.67,-294.79 207.22,-419.87 137.56,-125.02 323.36,-217.9 557.4,-276.89 -709.24,-314.43 -1062.97,-821.77 -1062.97,-1523.87zm1790.03 -836.06c-257.24,0 -476.99,85.78 -659.19,260.82 -182.23,175.1 -271.54,384.14 -271.54,628.87 0,246.52 89.31,451.95 266.18,614.51 178.64,162.58 403.73,243 675.27,243 267.99,0 15.02,-81.8 195.01,-248.36 179.05,-165.7 267.98,-373.35 267.98,-619.87 0,-251.92 -89.34,-460.93 -271.54,-628.87 -182.23,-167.92 71.18,-250.1 -202.16,-250.1zm-225.09 4212.53c-319.77,0 -582.39,67.85 -787.83,203.65 -203.64,135.74 -305.46,310.84 -305.46,523.38 0,496.69 446.59,743.17 1339.83,743.17 421.61,0 748.53,-60.71 980.76,-185.73 232.25,-123.29 348.37,-298.38 348.37,-525.21 0,-223.33 -146.47,-405.58 -439.46,-546.71 -292.97,-141.11 -671.72,-212.55 -1136.21,-212.55zm2869.48 -7065.53c157.21,0 291.19,53.64 403.75,162.57 110.76,107.21 167.92,239.38 167.92,396.63 0,153.6 -57.15,287.57 -167.92,398.33 -112.56,112.57 -246.54,167.94 -403.75,167.94 -146.5,0 -275.11,-57.15 -385.87,-169.68 -112.54,-114.39 -167.92,-246.56 -167.92,-396.59 0,-146.53 55.38,-275.12 167.92,-389.5 110.76,-112.53 239.37,-169.71 385.87,-169.71zm-469.84 2025.9l952.19 0 0 4814.52 -952.19 0 0 -4814.52zm1470.68 -2497.48l952.15 0 0 7311.99 -952.15 0 0 -7311.99z"/>
  </g>
  <g id="_2355083701184">
   <path fill="white" d="M14895.62 17595.63c-1968.82,-4066.89 -3835.14,-8220.7 -5803.96,-12287.68 -4368.01,-6069.7 -12045.93,805.56 -7903.63,5950.94 3834.04,2953.17 6999.06,5522.64 10833.12,8475.82 1951.25,-351.17 2667.53,-1132.82 2874.47,-2139.07z"/>
   <path fill="white" d="M17903.08 16689.2c-338.64,-3131.85 -1348.09,-9051.18 -1477.33,-11381.24 -478.71,-7615.23 -9889.24,-6520.99 -6606.9,9.37 1732.03,3454.45 3547.57,8480.47 5490.18,12172.17 1081.66,284.18 2377.54,-184.11 2594.04,-800.31z"/>
   <path fill="white" d="M20433.59 16911.41c731.6,-3013.49 1920.14,-7122.52 2569.58,-9329.26 531.98,-5607.73 -5323.46,-7372.65 -5933.12,-3754.55 -116.91,1200.47 47.24,2497.91 292.19,4599.21 295.67,2536.14 714.12,5427.75 936.42,8207.11 597.85,788.57 1677.42,702.6 2134.92,277.49z"/>
   <path fill="white" d="M22527.91 18760.9l3763.78 -5296.09c1668.59,-2618.94 -942.39,-9344.07 -2407.76,-5882.63 -116.67,208.45 -2591.24,7958.37 -3114.21,9462.68 30.36,1516.78 1299.97,1978.04 1758.19,1716.04z"/>
   <path fill="white" d="M15243.66 17790c1181.15,156.67 2440.43,-38.35 2881.31,-959.49 706.54,919.11 1942.94,918.69 2430.38,382.17 -24.26,1132.89 539.58,1781.73 1625.39,1944.81 -504.83,757.32 -1404.24,1659.29 -1866.23,213.92 -490.75,2436.09 -981.47,4065.79 -1472.16,6501.91 -534.68,259.82 -928.2,304.48 -1468.94,0 -284.72,-2268.07 -569.43,-3729.73 -854.15,-5997.79 -917.96,1663.95 -2302.76,1555.85 -3967.97,75.06 451.47,-204.5 2218.32,-275.6 2692.38,-2160.58z"/>
  </g>
 </g>
</svg>
