<?xml version="1.0" encoding="UTF-8"?>
<!DOCTYPE svg PUBLIC "-//W3C//DTD SVG 1.1//EN" "http://www.w3.org/Graphics/SVG/1.1/DTD/svg11.dtd">
<!-- Creator: CorelDRAW 2021 (64-Bit) -->
<svg xmlns="http://www.w3.org/2000/svg" xml:space="preserve" width="708.802mm" height="236.429mm" version="1.1" shape-rendering="geometricPrecision" text-rendering="geometricPrecision" image-rendering="optimizeQuality" fill-rule="evenodd" clip-rule="evenodd"
viewBox="0 0 32411.42 10811.22"
 xmlns:xlink="http://www.w3.org/1999/xlink"
 xmlns:xodm="http://www.corel.com/coreldraw/odm/2003">
 <g id="Layer_x0020_1">
  <metadata id="CorelCorpID_0Corel-Layer"/>
  <g id="_2355094312112">
   <path fill="white" d="M6111.98 7219.86c-807.85,-1668.73 -1573.64,-3373.12 -2381.49,-5041.89 -1792.29,-2490.52 -4942.69,330.54 -3243.02,2441.79 1573.18,1211.75 2871.86,2266.05 4445.06,3477.8 800.63,-144.1 1094.54,-464.82 1179.45,-877.7z"/>
   <path fill="white" d="M7346.01 6847.93c-138.95,-1285.07 -553.15,-3713.89 -606.18,-4669.96 -196.43,-3124.69 -4057.75,-2675.7 -2710.94,3.85 710.69,1417.43 1455.64,3479.71 2252.73,4994.49 443.83,116.61 975.56,-75.54 1064.39,-328.38z"/>
   <path fill="white" d="M8384.33 6939.11c300.19,-1236.5 787.87,-2922.52 1054.36,-3827.99 218.28,-2300.97 -2184.33,-3025.15 -2434.49,-1540.57 -47.97,492.58 19.38,1024.95 119.9,1887.16 121.32,1040.63 293.02,2227.12 384.23,3367.55 245.32,323.56 688.28,288.29 876,113.86z"/>
   <path fill="white" d="M9243.67 7697.99l1544.36 -2173.1c684.66,-1074.61 -386.68,-3834.06 -987.96,-2413.77 -47.87,85.53 -1063.24,3265.49 -1277.82,3882.74 12.46,622.37 533.41,811.63 721.42,704.12z"/>
   <path fill="white" d="M6254.79 7299.61c484.65,64.28 1001.36,-15.73 1182.26,-393.7 289.91,377.13 797.23,376.96 997.23,156.81 -9.95,464.85 221.4,731.08 666.93,798 -207.14,310.74 -576.19,680.84 -765.75,87.77 -201.36,999.58 -402.72,1668.28 -604.06,2667.87 -219.39,106.61 -380.86,124.94 -602.73,0 -116.83,-930.64 -233.65,-1530.38 -350.48,-2461.02 -376.66,682.76 -944.87,638.4 -1628.14,30.8 185.25,-83.91 910.22,-113.09 1104.74,-886.53z"/>
  </g>
  <g id="_2355094299920">
   <path fill="white" fill-rule="nonzero" d="M11751.89 8494.18l636.58 -625.87 0 354.65 541.36 0 0 304.86 -541.36 0 0 838.68c0,195.64 81.35,293.61 244.04,293.61 121.29,0 249.61,-39.52 384.95,-118.32l0 313.96c-130.17,73.01 -272.53,109.25 -426.35,109.25 -154.96,0 -284.55,-45.09 -387.52,-135.88 -32.37,-27.35 -59.02,-57.88 -80.06,-92.25 -20.92,-34.23 -38.68,-78.75 -52.71,-134.03 -14.62,-55.3 -21.64,-160.15 -21.64,-315.79l0 -759.21 -297.29 0 0 -33.64zm2679.54 609.23l-1204.72 0c8.88,165.27 63.59,296.75 164.55,394.55 101.11,97.82 232.02,146.84 392.12,146.84 222.99,0 428.8,-68.61 617.56,-205.8l0 329.67c-104.28,69.3 -207.81,118.15 -310.08,148.1 -102.25,29.78 -222.4,44.4 -360.31,44.4 -188.61,0 -341.15,-39.43 -458.01,-117.48 -116.29,-78.16 -209.66,-183.57 -279.56,-316.49 -70.59,-132.03 -105.54,-285.87 -105.54,-460.01 0,-261.06 73.76,-473.29 221.83,-637.17 147.36,-163.24 339.27,-245.33 575.59,-245.33 226.86,0 408.44,79.51 543.79,238.33 135.34,158.24 202.79,371.07 202.79,637.89l0 42.51zm-1196.98 -201.94l861.43 0c-8.88,-135.29 -48.82,-239.59 -120.72,-313.34 -72.32,-73.04 -169,-109.81 -290.29,-109.81 -122.03,0 -221.14,36.78 -298.6,109.81 -77.49,73.75 -128.34,178.06 -151.81,313.34zm2383.95 -678.5l406.02 0 -727.55 836.06 876.2 875.5 -454.84 0 -856.58 -871.07 756.76 -840.48zm-1111.21 -888.27l339.29 0 0 2599.82 -339.29 0 0 -2599.82zm1875.12 888.27l0 213.35c151.21,-167.69 323.38,-251.64 515.29,-251.64 106.7,0 205.78,28.09 297.88,83.23 91.51,55.28 161.38,130.91 209.1,227.59 47.68,96.48 71.75,249.04 71.75,457.98l0 981.04 -339.29 0 0 -978.47c0,-175.31 -26.64,-301.2 -80.06,-376.06 -53.28,-75.64 -142.19,-113.16 -267.37,-113.16 -160.12,0 -295.46,80.06 -407.3,240.16l0 1227.53 -346.89 0 0 -1711.55 346.89 0zm2094.94 -3.88c261.08,0 477.18,83.77 649.91,252.18 172.26,168.44 258.63,379.38 258.63,634.18 0,246.44 -87.65,451.7 -262.37,614.94 -174.71,163.29 -395.26,244.61 -660.8,244.61 -256.63,0 -471.46,-82.61 -644.32,-248.47 -172.14,-165.86 -258.51,-372.93 -258.51,-620.68 0,-250.94 87.08,-459.29 261.8,-626.41 174.02,-167.17 392.57,-250.35 655.65,-250.35zm-17.76 304.89c-162.69,0 -296.18,53.45 -400.28,160.15 -104.27,106.8 -156.41,242.73 -156.41,407.88 0,163.95 53.42,297.41 160.12,400.99 106.85,103.54 244.04,155.65 411.75,155.65 166.56,0 302.46,-52.85 408.59,-157.67 106.11,-104.84 159.38,-238.9 159.38,-402.7 0,-162.72 -55.28,-297.34 -165.84,-404.14 -110.56,-106.7 -249.63,-160.15 -417.32,-160.15zm1020.54 -1189.27l339.29 0 0 2599.82 -339.29 0 0 -2599.82zm1356.09 884.38c261.08,0 477.2,83.77 649.91,252.18 172.29,168.44 258.66,379.38 258.66,634.18 0,246.44 -87.65,451.7 -262.37,614.94 -174.74,163.29 -395.29,244.61 -660.8,244.61 -256.66,0 -471.46,-82.61 -644.32,-248.47 -172.14,-165.86 -258.51,-372.93 -258.51,-620.68 0,-250.94 87.09,-459.29 261.8,-626.41 174,-167.17 392.54,-250.35 655.63,-250.35zm-17.76 304.89c-162.67,0 -296.16,53.45 -400.28,160.15 -104.25,106.8 -156.39,242.73 -156.39,407.88 0,163.95 53.43,297.41 160.12,400.99 106.82,103.54 244.05,155.65 411.74,155.65 166.55,0 302.48,-52.85 408.59,-157.67 106.13,-104.84 159.4,-238.9 159.4,-402.7 0,-162.72 -55.28,-297.34 -165.83,-404.14 -110.58,-106.7 -249.63,-160.15 -417.35,-160.15zm1169.21 -1021.53c55.99,0 102.99,19.61 142.93,58.42 39.37,39.4 59.16,86.36 59.16,140.36 0,57.28 -19.07,105.54 -56.59,143.62 -37.52,38.83 -85.06,57.88 -141.62,57.88 -53.42,0 -100.39,-19.76 -141.08,-59.71 -40.66,-39.43 -61.02,-87.11 -61.02,-141.8 0,-52.01 20.36,-97.82 60.45,-138.48 39.95,-39.97 85.65,-60.3 137.77,-60.3zm-160.1 720.53l339.27 0 0 1958.71c0,296.75 -113.72,506.29 -341.15,629.56l-253.49 -247.73c78.21,-27.35 140.36,-75.04 186.19,-143.67 46.4,-67.85 69.18,-147.93 69.18,-238.16l0 -1958.71zm723.94 -720.53c55.85,0 103.55,19.02 142.93,57.73 40.09,38.21 59.71,85.75 59.71,141.05 0,54.68 -19.61,102.37 -59.71,141.8 -39.38,39.94 -87.08,59.71 -142.93,59.71 -52.14,0 -98.54,-20.33 -137.91,-60.42 -39.97,-40.68 -59.73,-87.65 -59.73,-141.08 0,-52.01 19.76,-97.82 59.73,-138.48 39.38,-39.97 85.77,-60.3 137.91,-60.3zm-167.12 720.53l339.26 0 0 1711.55 -339.26 0 0 -1711.55z"/>
   <path fill="white" fill-rule="nonzero" d="M9369.87 107.89l6569.49 0 0 886.24 -3187.5 0 0 6073 -999.99 0 0 -6073 -2382 0 0 -886.24zm4869.61 2383.73l0 1049.2 50.95 -79.79c446.63,-699.82 874.37,-969.41 1312.39,-969.41 341.24,0 697.77,83.18 1069.58,427.81l-477.07 794.55c-315.8,-297.07 -607.79,-446.48 -876.05,-446.48 -292.03,0 -544.97,139.22 -758.91,417.64 -213.92,278.45 -320.89,607.82 -320.89,989.82l0 2392.16 -909.98 0 0 -4575.5 909.98 0zm4635.33 4575.5l0 -582.34c-193.54,208.85 -412.57,371.79 -658.74,487.27 -247.87,117.11 -494.07,174.86 -740.23,174.86 -286.93,0 -553.48,-72.99 -797.96,-217.3 -242.76,-144.32 -427.84,-339.59 -551.77,-585.75 -123.94,-247.88 -186.74,-657.01 -186.74,-1230.89l0 -2621.34 904.89 0 0 2611.17c0,480.44 69.62,816.64 207.14,1006.79 137.51,190.12 378.62,285.22 723.27,285.22 431.22,0 797.94,-210.55 1100.16,-631.59l0 -3271.6 904.91 0 0 4575.5 -904.91 0zm923.96 -4575.5l0 580.63c404.09,-446.55 864.17,-580.63 1378.6,-580.63 285.22,0 549.87,-16.62 794.58,130.72 245.95,148.08 432.93,349.75 560.26,607.79 127.33,256.36 191.85,663.82 191.85,1220.7l0 2616.3 -904.93 0 0 -2606.13c0,-468.55 -71.28,-801.31 -213.89,-1001.64 -142.64,-202.04 -382.03,-302.24 -716.47,-302.24 -427.86,0 -791.16,213.92 -1089.99,641.77l0 3268.24 -925.27 0 0 -4575.5 925.27 0zm5183.71 4655.29l-23.77 84.91c178.25,42.42 319.18,125.64 419.35,247.87 101.88,122.23 151.09,261.45 151.09,417.64 0,252.95 -100.17,466.91 -302.19,645.14 -202.04,176.59 -526.32,264.86 -971.12,264.86 -122.26,0 -229.2,-6.78 -322.59,-23.77l0 -561.96c169.77,11.87 275.03,18.67 319.18,18.67 188.44,0 336.17,-35.66 441.44,-108.67 62.8,-42.42 95.08,-100.15 95.08,-169.79 0,-79.76 -33.96,-146 -101.88,-198.61 -67.92,-52.65 -193.54,-79.79 -375.2,-79.79 -37.37,0 -74.72,5.09 -115.45,15.26l219.01 -611.18c-431.25,-96.76 -825.12,-322.6 -1183.36,-679.1 -358.23,-356.55 -536.48,-891.38 -536.48,-1604.44 0,-719.83 207.56,-1300.12 621.37,-1740.2 414.68,-441.01 959.25,-572.15 1636.66,-572.15 609.33,0 729.73,-38.26 1327.65,227.5l0 966.03c-458.38,-292.02 -882.85,-438.02 -1273.31,-438.02 -407.48,0 -743.65,142.61 -1005.1,429.51 -261.45,286.96 -392.17,653.65 -392.17,1096.79 0,468.59 140.91,840.38 424.45,1115.42 283.51,275.06 665.52,412.57 1145.98,412.57 348.04,0 748.72,-101.88 1198.64,-303.87l0 894.7c-453.31,169.77 -898.13,254.68 -1332.77,254.68l-64.51 0z"/>
   <path fill="white" fill-rule="nonzero" d="M26341.09 4072.22c0,-487.22 178.28,-872.64 534.81,-1156.2 356.53,-283.49 843.8,-424.4 1460.1,-424.4l1884.54 0 0 706.28 -925.31 0c179.98,181.64 303.92,348.05 373.52,497.41 69.62,149.41 105.26,319.18 105.26,511.06 0,239.37 -67.91,473.69 -203.72,704.55 -135.84,230.91 -312.38,407.48 -524.62,529.76 -213.92,122.21 -565.35,220.67 -1052.61,293.68 -341.24,49.22 -512.74,166.41 -512.74,353.14 0,105.26 64.53,193.54 191.85,261.45 127.33,67.89 358.23,137.54 694.38,210.55 560.28,122.23 920.22,218.99 1081.5,288.58 161.28,69.65 305.6,169.79 434.61,298.83 219.01,219.01 329.37,494.04 329.37,825.1 0,434.63 -193.54,781.02 -580.63,1040.77 -385.39,258.07 -903.23,387.07 -1548.37,387.07 -653.65,0 -1174.87,-130.72 -1565.36,-390.46 -388.78,-259.77 -584.02,-609.5 -584.02,-1047.57 0,-619.66 383.71,-1018.63 1149.4,-1198.59 -305.6,-195.24 -458.4,-388.78 -458.4,-580.63 0,-146 66.21,-280.15 196.92,-399.02 130.74,-118.82 307.31,-207.09 529.73,-263.14 -674.03,-298.83 -1010.2,-780.97 -1010.2,-1448.22zm1701.17 -794.55c-244.46,0 -453.31,81.52 -626.47,247.88 -173.18,166.4 -258.07,365.06 -258.07,597.65 0,234.27 84.88,429.52 252.97,584 169.77,154.51 383.69,230.94 641.75,230.94 254.68,0 14.27,-77.74 185.32,-236.03 170.16,-157.47 254.68,-354.82 254.68,-589.09 0,-239.42 -84.91,-438.05 -258.07,-597.65 -173.18,-159.58 67.65,-237.68 -192.13,-237.68zm-213.92 4003.4c-303.9,0 -553.48,64.48 -748.72,193.54 -193.54,129.01 -290.29,295.41 -290.29,497.41 0,472.03 424.42,706.28 1273.31,706.28 400.68,0 711.38,-57.7 932.07,-176.52 220.72,-117.16 331.08,-283.57 331.08,-499.14 0,-212.24 -139.2,-385.44 -417.64,-519.57 -278.42,-134.1 -638.36,-201.99 -1079.8,-201.99zm2727.02 -6714.77c149.41,0 276.74,50.98 383.71,154.51 105.26,101.88 159.58,227.5 159.58,376.93 0,145.97 -54.31,273.3 -159.58,378.57 -106.97,106.97 -234.3,159.6 -383.71,159.6 -139.22,0 -261.45,-54.31 -366.72,-161.26 -106.95,-108.7 -159.58,-234.32 -159.58,-376.91 0,-139.25 52.63,-261.45 159.58,-370.16 105.26,-106.95 227.5,-161.28 366.72,-161.28zm-446.51 1925.32l904.91 0 0 4575.5 -904.91 0 0 -4575.5zm1397.67 -2373.49l904.88 0 0 6948.99 -904.88 0 0 -6948.99z"/>
  </g>
 </g>
</svg>
